<svg xmlns="http://www.w3.org/2000/svg" xmlns:xlink="http://www.w3.org/1999/xlink" xmlns:lucid="lucid" width="2537" height="1749"><g transform="translate(-300 -66)" lucid:page-tab-id="FDQc8L-t--qg"><path d="M0 0h3112.35v1959.37H0z" fill="#fff"/><path d="M984.8 171.27h1072.06v53.5H984.8z" fill="none"/><use xlink:href="#a" transform="matrix(1,0,0,1,984.7914087490984,171.26807108679972) translate(271.3849438115578 44.847657082097726)"/><use xlink:href="#b" transform="matrix(1,0,0,1,984.7914087490984,171.26807108679972) translate(537.5121867049779 44.847657082097726)"/><use xlink:href="#c" transform="matrix(1,0,0,1,984.7914087490984,171.26807108679972) translate(723.7545404209116 44.847657082097726)"/><path d="M1156.06 505.62v4.97m0 4.96v9.94m0 4.97v9.94m0 4.98v9.94m0 4.97v9.94m0 4.97v9.95m0 4.97v9.94m0 4.97v9.94m0 4.97v9.94m0 4.97v9.94m0 4.97v9.94m0 4.98v9.94m0 4.97v9.93m0 4.97v9.94m0 4.97v9.95m0 4.97v9.95m0 4.97v9.94m0 4.97v9.94m0 4.96V779m0 4.97v9.94m0 4.98v9.94m0 4.98v9.94m0 4.97v9.95m0 4.97v9.94m0 4.97v9.94m0 4.97v9.94m0 4.97v9.95m0 4.97v9.94m0 4.98v9.94m0 4.97v9.93m0 4.97v9.94m0 4.97v9.95m0 4.98v9.94m0 4.97v9.94m0 4.97v9.94m0 4.96v9.94m0 4.97v9.94m0 4.98v9.95m0 4.97v9.94m0 4.97v9.95m0 4.97v9.94m0 4.97v9.94m0 4.97v9.94m0 4.98v9.94m0 4.97v9.94m0 4.98v9.94m0 4.97v9.93m0 4.97v9.94m0 4.97v9.96m0 4.97v9.94m0 4.97v9.94m0 4.97v9.94m0 4.96v9.94m0 4.97v9.94m0 5v9.93m0 4.97v9.94m0 4.97v9.95m0 4.97v9.94m0 4.97v9.94m0 4.97v9.95m0 4.96v9.94m0 4.97v9.94m0 4.98v9.94m0 4.97v9.93m0 4.97v9.94m0 4.98v9.94m0 4.97v9.94m0 4.97v9.94m0 4.97v9.94m0 4.96v9.94m0 4.97v9.95m0 4.97v9.93m0 4.97v9.94m0 4.97v9.95m0 4.97v9.94m0 4.97v4.97" stroke="#333" fill="none"/><path d="M1156.56 505.63h-1v-.5h1z" stroke="#333" stroke-width=".05" fill="#333"/><path d="M1156.06 1624v.5M715.88 490.67v4.98m0 4.98v9.96m0 4.97v9.96m0 4.98v9.97m0 4.97v9.96m0 4.98v9.96m0 4.98v9.96m0 4.98v9.96m0 4.98v9.96m0 4.98v9.96m0 4.98v9.96m0 4.98v9.95m0 4.98v9.96m0 5v9.95m0 4.98v9.96m0 4.97v9.96m0 4.98v9.97m0 4.98v9.96m0 5v9.94m0 4.98v9.96m0 4.98v9.96m0 4.98v9.96m0 4.98v9.96m0 4.98v9.96m0 4.98v9.96m0 4.98v9.95m0 5v9.95m0 4.98V899m0 4.97v9.96m0 4.98v9.97m0 4.98v9.96m0 5v9.95m0 4.98v9.95m0 4.98v9.96m0 4.98v9.96m0 4.98v9.96m0 4.98v9.96m0 4.98v9.96m0 4.98v9.96m0 4.98v9.95m0 4.98v9.96m0 4.97v9.96m0 4.98v9.97m0 4.98v9.96m0 5v9.95m0 4.98v9.96m0 4.97v9.95m0 4.98v9.96m0 4.98v9.96m0 4.98v9.96m0 4.98v9.96m0 4.98v9.96m0 4.98v9.96m0 4.98v9.95m0 4.97v9.96m0 4.98v9.97m0 4.98v9.96m0 5v9.95m0 4.98v9.96m0 4.97v9.96m0 4.98v9.96m0 4.98v9.96m0 4.98v9.96m0 4.98v9.96m0 4.98v9.96m0 4.98v9.96m0 4.98v9.96m0 4.98v9.95m0 4.98v9.97m0 4.98v9.96m0 5v9.95m0 4.98v9.96m0 4.97v9.96m0 4.98v5" stroke="#333" fill="none"/><path d="M716.38 490.68h-1v-.5h1z" stroke="#333" stroke-width=".05" fill="#333"/><path d="M715.88 1581.17v.52" stroke="#333" fill="none"/><path d="M696.96 563.9c0-4.42 3.58-8 8-8h24c4.42 0 8 3.58 8 8v752.88c0 4.42-3.58 8-8 8h-24c-4.42 0-8-3.58-8-8zM1134.65 579.12c0-4.42 3.58-8 8-8h24c4.42 0 8 3.58 8 8v74c0 4.42-3.58 8-8 8h-24c-4.42 0-8-3.58-8-8z" stroke="#f2f2f2" fill="#d2d3d5"/><path d="M2017.43 513.67v4.98m0 4.98v9.96m0 4.96v9.96m0 4.98v9.96m0 4.98v9.96m0 4.97v9.96m0 4.98v9.97m0 4.98v9.95m0 4.98v9.96m0 4.98v9.96m0 4.98V668m0 5v9.95m0 4.98v9.96m0 4.97v9.95m0 4.98v9.96m0 4.98v9.96m0 4.98v9.95m0 4.98v9.97m0 4.98v9.96m0 5v9.94m0 4.98v9.96m0 4.98v9.96m0 4.98v9.95m0 4.98v9.96m0 4.97v9.96m0 4.97v9.96m0 4.98V907m0 4.98v9.96m0 4.97v9.97m0 4.98v9.96m0 5v9.95m0 4.97v9.96m0 4.98v9.96m0 4.98v9.95m0 4.98v9.96m0 4.97v9.96m0 4.98v9.96m0 4.98v4.98l-.74 1.78-1.78.74-1.78.73-.74 1.78v4.98m0 4.98v9.97m0 4.98v9.95m0 4.98v9.96m0 4.98v9.96m0 4.98v9.95m0 5v9.95m0 4.98v9.96m0 4.97v9.95m0 4.98v9.96m0 4.98v9.96m0 4.98v9.95m0 4.98v9.97m0 4.98v9.96m0 4.98v9.96m0 4.98v9.96m0 4.98v9.96m0 4.97v9.95m0 4.98v9.96m0 4.97v9.96m0 4.97v9.96m0 4.98v9.96m0 4.98v9.95m0 4.98v9.97m0 4.98v9.96m0 5v9.94m0 4.98v9.96m0 4.98v9.96m0 4.98v9.95m0 4.98v9.96m0 4.97v9.96m0 4.98v9.96m0 4.98v9.96m0 4.98v9.96m0 4.98v9.95m0 4.98v9.96m0 5v9.95m0 4.98v4.97" stroke="#333" fill="none"/><path d="M2017.93 513.68h-1v-.5h1z" stroke="#333" stroke-width=".05" fill="#333"/><path d="M2012.4 1624v.5" stroke="#333" fill="none"/><path d="M1997.43 647.7c0-4.4 3.58-8 8-8h24c4.42 0 8 3.6 8 8v562.04c0 4.42-3.58 8-8 8h-24c-4.42 0-8-3.58-8-8z" stroke="#f2f2f2" fill="#d2d3d5"/><path d="M620.85 374.17c0-4.42 3.58-8 8-8h174.07c4.42 0 8 3.58 8 8v108c0 4.42-3.58 8-8 8H628.85c-4.42 0-8-3.58-8-8z" stroke="#000" stroke-opacity="0" fill="#ffbd50"/><use xlink:href="#d" transform="matrix(1,0,0,1,628.8467576896489,374.1701777169993) translate(66.38222395087146 57.80595713526222)"/><path d="M1070.43 389.12c0-4.42 3.58-8 8-8h174.07c4.42 0 8 3.58 8 8v108c0 4.42-3.58 8-8 8h-174.07c-4.42 0-8-3.58-8-8z" stroke="#000" stroke-opacity="0" fill="#ffcc78"/><use xlink:href="#e" transform="matrix(1,0,0,1,1078.4254442924985,389.1175292456767) translate(61.14903288988591 57.80595713526222)"/><path d="M1862.54 329.13c0-4.42 3.58-8 8-8h690.48c4.42 0 8 3.58 8 8V527.2c0 4.43-3.58 8-8 8h-690.48c-4.42 0-8-3.57-8-8z" stroke="#333" fill="#f2f3f5"/><path d="M737.96 600.9h379.81" stroke="#333" fill="none"/><path d="M737.97 601.4h-.5v-1h.5z" stroke="#333" stroke-width=".05" fill="#333"/><path d="M1132.53 600.9l-14.26 4.64v-9.27z" stroke="#333" fill="#333"/><use xlink:href="#f" transform="matrix(1,0,0,1,844.7074731508695,575.3062375482267) translate(0.0049999999999954525 14.4)"/><use xlink:href="#g" transform="matrix(1,0,0,1,844.7074731508695,575.3062375482267) translate(40.955 14.4)"/><use xlink:href="#h" transform="matrix(1,0,0,1,844.7074731508695,575.3062375482267) translate(59.905 14.4)"/><use xlink:href="#i" transform="matrix(1,0,0,1,844.7074731508695,575.3062375482267) translate(96.805 14.4)"/><path d="M1175.65 645.63h805.3" stroke="#333" fill="none"/><path d="M1175.66 646.13h-.5v-1h.5z" stroke="#333" stroke-width=".05" fill="#333"/><path d="M1995.72 645.63l-14.26 4.64V641z" stroke="#333" fill="#333"/><use xlink:href="#j" transform="matrix(1,0,0,1,1432.6585088858499,576.8320751542072) translate(0 14.4)"/><use xlink:href="#k" transform="matrix(1,0,0,1,1432.6585088858499,576.8320751542072) translate(0 36)"/><use xlink:href="#l" transform="matrix(1,0,0,1,1432.6585088858499,576.8320751542072) translate(0 57.6)"/><path d="M1996.43 706.85H753.83" stroke="#333" fill="none"/><path d="M1996.93 707.35h-.5v-1h.5z" stroke="#333" stroke-width=".05" fill="#333"/><path d="M739.08 706.85l14.26-4.64v9.28z" stroke="#333" fill="#333"/><use xlink:href="#m" transform="matrix(1,0,0,1,976.3588822860708,681.2453259443116) translate(0.005000000000002558 14.4)"/><use xlink:href="#n" transform="matrix(1,0,0,1,976.3588822860708,681.2453259443116) translate(48.955000000000005 14.4)"/><path d="M737.96 757.96h1242.6" stroke="#333" fill="none"/><path d="M737.97 758.46h-.5v-1h.5z" stroke="#333" stroke-width=".05" fill="#333"/><path d="M1995.3 757.96l-14.25 4.64v-9.27z" stroke="#333" fill="#333"/><use xlink:href="#o" transform="matrix(1,0,0,1,972.486112302209,732.362026966718) translate(0.005000000000002558 14.4)"/><path d="M2038.43 772.87h69c6.64 0 12 5.37 12 12v39.08c0 6.63-5.36 12-12 12h-53.12" stroke="#333" fill="none"/><path d="M2038.44 773.37h-.5v-1h.5z" stroke="#333" stroke-width=".05" fill="#333"/><path d="M2039.55 835.95l14.26-4.63v9.27z" stroke="#333" fill="#333"/><use xlink:href="#p" transform="matrix(1,0,0,1,2127.442379699147,793.6109874903374) translate(0.005000000000002558 14.4)"/><path d="M1134.65 861.8c0-4.42 3.58-8 8-8h24c4.42 0 8 3.58 8 8v690.48c0 4.42-3.58 8-8 8h-24c-4.42 0-8-3.58-8-8z" stroke="#f2f2f2" fill="#d2d3d5"/><path d="M1996.43 867.4h-804.9" stroke="#333" fill="none"/><path d="M1996.93 867.9h-.5v-1h.5z" stroke="#333" stroke-width=".05" fill="#333"/><path d="M1176.77 867.4l14.27-4.65v9.27z" stroke="#333" fill="#333"/><use xlink:href="#q" transform="matrix(1,0,0,1,1340.8655917399992,841.785815517819) translate(0 14.4)"/><path d="M1175.65 1065.95h804.9" stroke="#333" fill="none"/><path d="M1175.66 1066.45h-.5v-1h.5z" stroke="#333" stroke-width=".05" fill="#333"/><path d="M1995.3 1065.95l-14.25 4.64v-9.28z" stroke="#333" fill="#333"/><use xlink:href="#r" transform="matrix(1,0,0,1,1412.8456030305142,971.3330388099675) translate(0 16.30297856763111)"/><use xlink:href="#s" transform="matrix(1,0,0,1,1412.8456030305142,971.3330388099675) translate(0 39.15744641907777)"/><use xlink:href="#t" transform="matrix(1,0,0,1,1412.8456030305142,971.3330388099675) translate(0 61.211914270524446)"/><use xlink:href="#u" transform="matrix(1,0,0,1,1412.8456030305142,971.3330388099675) translate(0 83.2663821219711)"/><path d="M1883.95 351.17c0-4.42 3.58-8 8-8h250.96c4.43 0 8 3.58 8 8v154c0 4.42-3.57 8-8 8h-250.95c-4.42 0-8-3.58-8-8z" stroke="#000" stroke-opacity="0" fill="#ffd99a"/><use xlink:href="#v" transform="matrix(1,0,0,1,1891.948781954797,351.1701777169993) translate(32.14832915454066 57.97021432368892)"/><use xlink:href="#w" transform="matrix(1,0,0,1,1891.948781954797,351.1701777169993) translate(159.6478931858249 57.97021432368892)"/><use xlink:href="#x" transform="matrix(1,0,0,1,1891.948781954797,351.1701777169993) translate(125.5 80.8059571352622)"/><use xlink:href="#y" transform="matrix(1,0,0,1,1891.948781954797,351.1701777169993) translate(88.65622051003106 103.64169994683552)"/><path d="M2402.78 513.67v5m0 5v10m0 5v10m0 5v10.02m0 5v10m0 5v10m0 5v10m0 5v10m0 5v10m0 5v10m0 5v10.02m0 5v10m0 5v10m0 5v10m0 5v10m0 5.02v10m0 5v10m0 5v10m0 5v10m0 5v10.02m0 5v10m0 5v10m0 5v10m0 5v10.02m0 5v10m0 5v10m0 5v10m0 5v10m0 5v10.02m0 5v10m0 5v10m0 5v10m0 5v10.02m0 5v10m0 5v10m0 5v10m0 5v10m0 5.02v10m0 5v10m0 5v10m0 5v10m0 5v10.02m0 5v10m0 5v10m0 5v10m0 5v10m0 5.02v10m0 5v10m0 5v10m0 5v10m0 5v10.02m0 5v10m0 5v10m0 5v10m0 5v10.02m0 5v10m0 5v10m0 5v10m0 5v10m0 5v10.02m0 5v10m0 5v10m0 5v10m0 5v10.02m0 5v10m0 5v10m0 5v10m0 5v10m0 5.02v10m0 5v10m0 5v10m0 5v10m0 5V1599m0 5v10m0 5v5" stroke="#333" fill="none"/><path d="M2403.28 513.68h-1v-.5h1z" stroke="#333" stroke-width=".05" fill="#333"/><path d="M2402.78 1624v.5" stroke="#333" fill="none"/><path d="M2382.78 1311.38c0-4.42 3.6-8 8-8h24c4.42 0 8 3.58 8 8v219.5c0 4.4-3.58 8-8 8h-24c-4.4 0-8-3.6-8-8z" stroke="#f2f2f2" fill="#d2d3d5"/><path d="M1996.43 1196.63h-804.9" stroke="#333" fill="none"/><path d="M1996.93 1197.13h-.5v-1h.5z" stroke="#333" stroke-width=".05" fill="#333"/><path d="M1176.77 1196.63l14.27-4.64v9.26z" stroke="#333" fill="#333"/><g><use xlink:href="#z" transform="matrix(1,0,0,1,1514.4616603588752,1153.9003260563397) translate(0.0049999999999954525 25.81787140578665)"/></g><path d="M2269.3 351.17c0-4.42 3.58-8 8-8h250.96c4.42 0 8 3.58 8 8v154c0 4.42-3.58 8-8 8H2277.3c-4.42 0-8-3.58-8-8z" stroke="#000" stroke-opacity="0" fill="#ffd99a"/><g><use xlink:href="#A" transform="matrix(1,0,0,1,2277.3019419000966,351.1701777169993) translate(49.988753226082295 57.97021432368892)"/><use xlink:href="#w" transform="matrix(1,0,0,1,2277.3019419000966,351.1701777169993) translate(141.80746911428324 57.97021432368892)"/><use xlink:href="#x" transform="matrix(1,0,0,1,2277.3019419000966,351.1701777169993) translate(125.5 80.8059571352622)"/><use xlink:href="#y" transform="matrix(1,0,0,1,2277.3019419000966,351.1701777169993) translate(88.65622051003106 103.64169994683552)"/></g><path d="M1175.65 1308.36H2366.5" stroke="#333" fill="none"/><path d="M1175.66 1308.86h-.5v-1h.5z" stroke="#333" stroke-width=".05" fill="#333"/><path d="M2381.26 1308.36L2367 1313v-9.28z" stroke="#333" fill="#333"/><g><use xlink:href="#B" transform="matrix(1,0,0,1,1535.1158732858044,1282.3032418874013) translate(0.0049999999999954525 14.70297856763111)"/></g><path d="M2381.78 1507.8H1191.53" stroke="#333" fill="none"/><path d="M2382.28 1508.3h-.5v-1h.5z" stroke="#333" stroke-width=".05" fill="#333"/><path d="M1176.77 1507.8l14.26-4.63v9.27z" stroke="#333" fill="#333"/><g><use xlink:href="#C" transform="matrix(1,0,0,1,1714.937171712649,1395.8068083299324) translate(0 14.4)"/><use xlink:href="#D" transform="matrix(1,0,0,1,1714.937171712649,1395.8068083299324) translate(36.01 36)"/><use xlink:href="#E" transform="matrix(1,0,0,1,1714.937171712649,1395.8068083299324) translate(83.91 36)"/><use xlink:href="#F" transform="matrix(1,0,0,1,1714.937171712649,1395.8068083299324) translate(36.01 57.6)"/><use xlink:href="#G" transform="matrix(1,0,0,1,1714.937171712649,1395.8068083299324) translate(88.86000000000001 57.6)"/><use xlink:href="#H" transform="matrix(1,0,0,1,1714.937171712649,1395.8068083299324) translate(36.01 79.20000000000002)"/><use xlink:href="#I" transform="matrix(1,0,0,1,1714.937171712649,1395.8068083299324) translate(0 100.80000000000001)"/></g><defs><path fill="#333" d="M275 0h-61l-44-196L126 0H64L0-248h53L97-49l45-199h58l43 199 44-199h52" id="J"/><path fill="#333" d="M110-194c64 0 96 36 96 99 0 64-35 99-97 99-61 0-95-36-95-99 0-62 34-99 96-99zm-1 164c35 0 45-28 45-65 0-40-10-65-43-65-34 0-45 26-45 65 0 36 10 65 43 65" id="K"/><path fill="#333" d="M135-150c-39-12-60 13-60 57V0H25l-1-190h47c2 13-1 29 3 40 6-28 27-53 61-41v41" id="L"/><path fill="#333" d="M147 0L96-86 75-71V0H25v-261h50v150l67-79h53l-66 74L201 0h-54" id="M"/><path fill="#333" d="M121-226c-27-7-43 5-38 36h38v33H83V0H34v-157H6v-33h28c-9-59 32-81 87-68v32" id="N"/><path fill="#333" d="M25 0v-261h50V0H25" id="O"/><path fill="#333" d="M231 0h-52l-39-155L100 0H48L-1-190h46L77-45c9-52 24-97 36-145h53l37 145 32-145h46" id="P"/><g id="a"><use transform="matrix(0.15572103153506153,0,0,0.15572103153506153,0,0)" xlink:href="#J"/><use transform="matrix(0.15572103153506153,0,0,0.15572103153506153,51.699382469640426,0)" xlink:href="#K"/><use transform="matrix(0.15572103153506153,0,0,0.15572103153506153,85.8022883758189,0)" xlink:href="#L"/><use transform="matrix(0.15572103153506153,0,0,0.15572103153506153,107.60323279072752,0)" xlink:href="#M"/><use transform="matrix(0.15572103153506153,0,0,0.15572103153506153,138.74743909773983,0)" xlink:href="#N"/><use transform="matrix(0.15572103153506153,0,0,0.15572103153506153,157.27824185041214,0)" xlink:href="#O"/><use transform="matrix(0.15572103153506153,0,0,0.15572103153506153,172.8503450039183,0)" xlink:href="#K"/><use transform="matrix(0.15572103153506153,0,0,0.15572103153506153,206.95325091009678,0)" xlink:href="#P"/></g><path fill="#333" d="M140-251c80 0 125 45 125 126S219 4 139 4C58 4 15-44 15-125s44-126 125-126zm-1 214c52 0 73-35 73-88 0-50-21-86-72-86-52 0-73 35-73 86s22 88 72 88" id="Q"/><path fill="#333" d="M199 0l-22-63H83L61 0H9l90-248h61L250 0h-51zm-33-102l-36-108c-10 38-24 72-36 108h72" id="R"/><path fill="#333" d="M85 4C-2 5 27-109 22-190h50c7 57-23 150 33 157 60-5 35-97 40-157h50l1 190h-47c-2-12 1-28-3-38-12 25-28 42-61 42" id="S"/><path fill="#333" d="M115-3C79 11 28 4 28-45v-112H4v-33h27l15-45h31v45h36v33H77v99c-1 23 16 31 38 25v30" id="T"/><path fill="#333" d="M114-157C55-157 80-60 75 0H25v-261h50l-1 109c12-26 28-41 61-42 86-1 58 113 63 194h-50c-7-57 23-157-34-157" id="U"/><g id="b"><use transform="matrix(0.15572103153506153,0,0,0.15572103153506153,0,0)" xlink:href="#Q"/><use transform="matrix(0.15572103153506153,0,0,0.15572103153506153,43.60188882981723,0)" xlink:href="#R"/><use transform="matrix(0.15572103153506153,0,0,0.15572103153506153,83.93363599739817,0)" xlink:href="#S"/><use transform="matrix(0.15572103153506153,0,0,0.15572103153506153,118.03654190357665,0)" xlink:href="#T"/><use transform="matrix(0.15572103153506153,0,0,0.15572103153506153,136.56734465624896,0)" xlink:href="#U"/></g><path fill="#333" d="M182-182c0 78-84 86-111 141h115V0H12c-6-101 99-100 120-180 1-22-12-31-33-32-23 0-32 14-35 34l-49-3c5-45 32-70 84-70 51 0 83 22 83 69" id="V"/><path fill="#333" d="M24 0v-54h51V0H24" id="W"/><path fill="#333" d="M101-251c68 0 84 54 84 127C185-50 166 4 99 4S15-52 14-124c-1-75 17-127 87-127zm-1 216c37-5 36-46 36-89s4-89-36-89c-39 0-36 45-36 89 0 43-3 85 36 89" id="X"/><g id="c"><use transform="matrix(0.15572103153506153,0,0,0.15572103153506153,0,0)" xlink:href="#V"/><use transform="matrix(0.15572103153506153,0,0,0.15572103153506153,31.144206307012308,0)" xlink:href="#W"/><use transform="matrix(0.15572103153506153,0,0,0.15572103153506153,46.71630946051846,0)" xlink:href="#X"/></g><path fill="#333" d="M238-95c0 69-44 99-111 99C63 4 22-25 22-93v-155h51v151c-1 38 19 59 55 60 90 1 49-130 58-211h52v153" id="Y"/><path fill="#333" d="M137-138c1-29-70-34-71-4 15 46 118 7 119 86 1 83-164 76-172 9l43-7c4 19 20 25 44 25 33 8 57-30 24-41C81-84 22-81 20-136c-2-80 154-74 161-7" id="Z"/><path fill="#333" d="M185-48c-13 30-37 53-82 52C43 2 14-33 14-96s30-98 90-98c62 0 83 45 84 108H66c0 31 8 55 39 56 18 0 30-7 34-22zm-45-69c5-46-57-63-70-21-2 6-4 13-4 21h74" id="aa"/><g id="d"><use transform="matrix(0.05286051576753077,0,0,0.05286051576753077,0,0)" xlink:href="#Y"/><use transform="matrix(0.05286051576753077,0,0,0.05286051576753077,13.69087358379047,0)" xlink:href="#Z"/><use transform="matrix(0.05286051576753077,0,0,0.05286051576753077,24.262976737296626,0)" xlink:href="#aa"/><use transform="matrix(0.05286051576753077,0,0,0.05286051576753077,34.83507989080278,0)" xlink:href="#L"/></g><path fill="#333" d="M67-125c0 53 21 87 73 88 37 1 54-22 65-47l45 17C233-25 199 4 140 4 58 4 20-42 15-125 8-235 124-281 211-232c18 10 29 29 36 50l-46 12c-8-25-30-41-62-41-52 0-71 34-72 86" id="ab"/><path fill="#333" d="M25-224v-37h50v37H25zM25 0v-190h50V0H25" id="ac"/><path fill="#333" d="M135-194c87-1 58 113 63 194h-50c-7-57 23-157-34-157-59 0-34 97-39 157H25l-1-190h47c2 12-1 28 3 38 12-26 28-41 61-42" id="ad"/><g id="e"><use transform="matrix(0.05286051576753077,0,0,0.05286051576753077,0,0)" xlink:href="#ab"/><use transform="matrix(0.05286051576753077,0,0,0.05286051576753077,13.69087358379047,0)" xlink:href="#O"/><use transform="matrix(0.05286051576753077,0,0,0.05286051576753077,18.976925160543548,0)" xlink:href="#ac"/><use transform="matrix(0.05286051576753077,0,0,0.05286051576753077,24.262976737296626,0)" xlink:href="#aa"/><use transform="matrix(0.05286051576753077,0,0,0.05286051576753077,34.83507989080278,0)" xlink:href="#ad"/><use transform="matrix(0.05286051576753077,0,0,0.05286051576753077,46.41153284389202,0)" xlink:href="#T"/></g><path fill="#333" d="M185-189c-5-48-123-54-124 2 14 75 158 14 163 119 3 78-121 87-175 55-17-10-28-26-33-46l33-7c5 56 141 63 141-1 0-78-155-14-162-118-5-82 145-84 179-34 5 7 8 16 11 25" id="ae"/><path fill="#333" d="M24-231v-30h32v30H24zM24 0v-190h32V0H24" id="af"/><path fill="#333" d="M177-190C167-65 218 103 67 71c-23-6-38-20-44-43l32-5c15 47 100 32 89-28v-30C133-14 115 1 83 1 29 1 15-40 15-95c0-56 16-97 71-98 29-1 48 16 59 35 1-10 0-23 2-32h30zM94-22c36 0 50-32 50-73 0-42-14-75-50-75-39 0-46 34-46 75s6 73 46 73" id="ag"/><path fill="#333" d="M117-194c89-4 53 116 60 194h-32v-121c0-31-8-49-39-48C34-167 62-67 57 0H25l-1-190h30c1 10-1 24 2 32 11-22 29-35 61-36" id="ah"/><g id="f"><use transform="matrix(0.05,0,0,0.05,0,0)" xlink:href="#ae"/><use transform="matrix(0.05,0,0,0.05,12,0)" xlink:href="#af"/><use transform="matrix(0.05,0,0,0.05,15.949999999999998,0)" xlink:href="#ag"/><use transform="matrix(0.05,0,0,0.05,25.950000000000003,0)" xlink:href="#ah"/></g><g id="g"><use transform="matrix(0.05,0,0,0.05,0,0)" xlink:href="#af"/><use transform="matrix(0.05,0,0,0.05,3.95,0)" xlink:href="#ah"/></g><path fill="#333" d="M206 0h-36l-40-164L89 0H53L-1-190h32L70-26l43-164h34l41 164 42-164h31" id="ai"/><path fill="#333" d="M59-47c-2 24 18 29 38 22v24C64 9 27 4 27-40v-127H5v-23h24l9-43h21v43h35v23H59v120" id="aj"/><path fill="#333" d="M106-169C34-169 62-67 57 0H25v-261h32l-1 103c12-21 28-36 61-36 89 0 53 116 60 194h-32v-121c2-32-8-49-39-48" id="ak"/><g id="h"><use transform="matrix(0.05,0,0,0.05,0,0)" xlink:href="#ai"/><use transform="matrix(0.05,0,0,0.05,12.950000000000001,0)" xlink:href="#af"/><use transform="matrix(0.05,0,0,0.05,16.900000000000002,0)" xlink:href="#aj"/><use transform="matrix(0.05,0,0,0.05,21.900000000000002,0)" xlink:href="#ak"/></g><path fill="#333" d="M143 4C61 4 22-44 18-125c-5-107 100-154 193-111 17 8 29 25 37 43l-32 9c-13-25-37-40-76-40-61 0-88 39-88 99 0 61 29 100 91 101 35 0 62-11 79-27v-45h-74v-28h105v86C228-13 192 4 143 4" id="al"/><path fill="#333" d="M84 4C-5 8 30-112 23-190h32v120c0 31 7 50 39 49 72-2 45-101 50-169h31l1 190h-30c-1-10 1-25-2-33-11 22-28 36-60 37" id="am"/><path fill="#333" d="M115-194c53 0 69 39 70 98 0 66-23 100-70 100C84 3 66-7 56-30L54 0H23l1-261h32v101c10-23 28-34 59-34zm-8 174c40 0 45-34 45-75 0-40-5-75-45-74-42 0-51 32-51 76 0 43 10 73 51 73" id="an"/><g id="i"><use transform="matrix(0.05,0,0,0.05,0,0)" xlink:href="#al"/><use transform="matrix(0.05,0,0,0.05,14,0)" xlink:href="#af"/><use transform="matrix(0.05,0,0,0.05,17.95,0)" xlink:href="#aj"/><use transform="matrix(0.05,0,0,0.05,22.95,0)" xlink:href="#ak"/><use transform="matrix(0.05,0,0,0.05,32.95,0)" xlink:href="#am"/><use transform="matrix(0.05,0,0,0.05,42.95,0)" xlink:href="#an"/></g><path fill="#333" d="M115-194c55 1 70 41 70 98S169 2 115 4C84 4 66-9 55-30l1 105H24l-1-265h31l2 30c10-21 28-34 59-34zm-8 174c40 0 45-34 45-75s-6-73-45-74c-42 0-51 32-51 76 0 43 10 73 51 73" id="ao"/><path fill="#333" d="M135-143c-3-34-86-38-87 0 15 53 115 12 119 90S17 21 10-45l28-5c4 36 97 45 98 0-10-56-113-15-118-90-4-57 82-63 122-42 12 7 21 19 24 35" id="ap"/><path fill="#333" d="M33-154v-36h34v36H33zM33 0v-36h34V0H33" id="aq"/><path fill="#333" d="M0 4l72-265h28L28 4H0" id="ar"/><path fill="#333" d="M33 0v-38h34V0H33" id="as"/><path fill="#333" d="M96-169c-40 0-48 33-48 73s9 75 48 75c24 0 41-14 43-38l32 2c-6 37-31 61-74 61-59 0-76-41-82-99-10-93 101-131 147-64 4 7 5 14 7 22l-32 3c-4-21-16-35-41-35" id="at"/><path fill="#333" d="M100-194c62-1 85 37 85 99 1 63-27 99-86 99S16-35 15-95c0-66 28-99 85-99zM99-20c44 1 53-31 53-75 0-43-8-75-51-75s-53 32-53 75 10 74 51 75" id="au"/><path fill="#333" d="M210-169c-67 3-38 105-44 169h-31v-121c0-29-5-50-35-48C34-165 62-65 56 0H25l-1-190h30c1 10-1 24 2 32 10-44 99-50 107 0 11-21 27-35 58-36 85-2 47 119 55 194h-31v-121c0-29-5-49-35-48" id="av"/><path fill="#333" d="M24 0v-261h32V0H24" id="aw"/><path fill="#333" d="M141-36C126-15 110 5 73 4 37 3 15-17 15-53c-1-64 63-63 125-63 3-35-9-54-41-54-24 1-41 7-42 31l-33-3c5-37 33-52 76-52 45 0 72 20 72 64v82c-1 20 7 32 28 27v20c-31 9-61-2-59-35zM48-53c0 20 12 33 32 33 41-3 63-29 60-74-43 2-92-5-92 41" id="ax"/><path fill="#333" d="M114-163C36-179 61-72 57 0H25l-1-190h30c1 12-1 29 2 39 6-27 23-49 58-41v29" id="ay"/><path fill="#333" d="M9 0v-24l116-142H16v-24h144v24L44-24h123V0H9" id="az"/><path fill="#333" d="M100-194c63 0 86 42 84 106H49c0 40 14 67 53 68 26 1 43-12 49-29l28 8c-11 28-37 45-77 45C44 4 14-33 15-96c1-61 26-98 85-98zm52 81c6-60-76-77-97-28-3 7-6 17-6 28h103" id="aA"/><path fill="#333" d="M103-251c84 0 111 97 45 133-19 10-37 24-39 52H78c0-63 77-55 77-114 0-30-21-42-52-43-32 0-53 17-56 46l-32-2c7-45 34-72 88-72zM77 0v-35h34V0H77" id="aB"/><g id="j"><use transform="matrix(0.05,0,0,0.05,0,0)" xlink:href="#ak"/><use transform="matrix(0.05,0,0,0.05,10,0)" xlink:href="#aj"/><use transform="matrix(0.05,0,0,0.05,15,0)" xlink:href="#aj"/><use transform="matrix(0.05,0,0,0.05,20,0)" xlink:href="#ao"/><use transform="matrix(0.05,0,0,0.05,30,0)" xlink:href="#ap"/><use transform="matrix(0.05,0,0,0.05,39,0)" xlink:href="#aq"/><use transform="matrix(0.05,0,0,0.05,44,0)" xlink:href="#ar"/><use transform="matrix(0.05,0,0,0.05,49,0)" xlink:href="#ar"/><use transform="matrix(0.05,0,0,0.05,54,0)" xlink:href="#ag"/><use transform="matrix(0.05,0,0,0.05,64,0)" xlink:href="#af"/><use transform="matrix(0.05,0,0,0.05,67.95,0)" xlink:href="#aj"/><use transform="matrix(0.05,0,0,0.05,72.95,0)" xlink:href="#ak"/><use transform="matrix(0.05,0,0,0.05,82.95,0)" xlink:href="#am"/><use transform="matrix(0.05,0,0,0.05,92.95,0)" xlink:href="#an"/><use transform="matrix(0.05,0,0,0.05,102.95,0)" xlink:href="#as"/><use transform="matrix(0.05,0,0,0.05,107.95,0)" xlink:href="#at"/><use transform="matrix(0.05,0,0,0.05,116.95,0)" xlink:href="#au"/><use transform="matrix(0.05,0,0,0.05,126.95,0)" xlink:href="#av"/><use transform="matrix(0.05,0,0,0.05,141.9,0)" xlink:href="#ar"/><use transform="matrix(0.05,0,0,0.05,146.9,0)" xlink:href="#aw"/><use transform="matrix(0.05,0,0,0.05,150.85,0)" xlink:href="#au"/><use transform="matrix(0.05,0,0,0.05,160.85,0)" xlink:href="#ag"/><use transform="matrix(0.05,0,0,0.05,170.85,0)" xlink:href="#af"/><use transform="matrix(0.05,0,0,0.05,174.79999999999998,0)" xlink:href="#ah"/><use transform="matrix(0.05,0,0,0.05,184.79999999999998,0)" xlink:href="#ar"/><use transform="matrix(0.05,0,0,0.05,189.79999999999998,0)" xlink:href="#au"/><use transform="matrix(0.05,0,0,0.05,199.79999999999998,0)" xlink:href="#ax"/><use transform="matrix(0.05,0,0,0.05,209.79999999999995,0)" xlink:href="#am"/><use transform="matrix(0.05,0,0,0.05,219.79999999999995,0)" xlink:href="#aj"/><use transform="matrix(0.05,0,0,0.05,224.79999999999995,0)" xlink:href="#ak"/><use transform="matrix(0.05,0,0,0.05,234.79999999999995,0)" xlink:href="#ar"/><use transform="matrix(0.05,0,0,0.05,239.79999999999995,0)" xlink:href="#ax"/><use transform="matrix(0.05,0,0,0.05,249.79999999999995,0)" xlink:href="#am"/><use transform="matrix(0.05,0,0,0.05,259.79999999999995,0)" xlink:href="#aj"/><use transform="matrix(0.05,0,0,0.05,264.79999999999995,0)" xlink:href="#ak"/><use transform="matrix(0.05,0,0,0.05,274.79999999999995,0)" xlink:href="#au"/><use transform="matrix(0.05,0,0,0.05,284.79999999999995,0)" xlink:href="#ay"/><use transform="matrix(0.05,0,0,0.05,290.74999999999994,0)" xlink:href="#af"/><use transform="matrix(0.05,0,0,0.05,294.69999999999993,0)" xlink:href="#az"/><use transform="matrix(0.05,0,0,0.05,303.69999999999993,0)" xlink:href="#aA"/><use transform="matrix(0.05,0,0,0.05,313.69999999999993,0)" xlink:href="#aB"/></g><path fill="#333" d="M-5 72V49h209v23H-5" id="aC"/><path fill="#333" d="M85-194c31 0 48 13 60 33l-1-100h32l1 261h-30c-2-10 0-23-3-31C134-8 116 4 85 4 32 4 16-35 15-94c0-66 23-100 70-100zm9 24c-40 0-46 34-46 75 0 40 6 74 45 74 42 0 51-32 51-76 0-42-9-74-50-73" id="aD"/><path fill="#333" d="M18-150v-26h174v26H18zm0 90v-26h174v26H18" id="aE"/><path fill="#333" d="M194-70c0 46-34 64-81 66v29H91V-4C42-5 12-27 4-67l30-6c5 28 25 41 57 43v-87c-38-9-76-20-76-67 1-42 33-58 76-59v-23h22v23c45 0 67 20 76 56l-31 6c-5-23-18-35-45-37v78c41 10 81 20 81 70zm-81 41c51 7 71-66 19-77-6-2-12-4-19-6v83zM91-219c-47-6-63 57-18 69 6 2 12 3 18 5v-74" id="aF"/><path fill="#333" d="M39-94c74 12-11 154 75 146v23c-44 4-70-10-70-52C44-23 55-84 6-82v-22c81 4-7-162 84-157h24v23c-82-15-2 131-75 144" id="aG"/><path fill="#6db1ff" d="M190-63c-7 42-38 67-86 67-59 0-84-38-90-98-12-110 154-137 174-36l-49 2c-2-19-15-32-35-32-30 0-35 28-38 64-6 74 65 87 74 30" id="aH"/><path fill="#6db1ff" d="M25 0v-261h50V0H25" id="aI"/><path fill="#6db1ff" d="M25-224v-37h50v37H25zM25 0v-190h50V0H25" id="aJ"/><path fill="#6db1ff" d="M185-48c-13 30-37 53-82 52C43 2 14-33 14-96s30-98 90-98c62 0 83 45 84 108H66c0 31 8 55 39 56 18 0 30-7 34-22zm-45-69c5-46-57-63-70-21-2 6-4 13-4 21h74" id="aK"/><path fill="#6db1ff" d="M135-194c87-1 58 113 63 194h-50c-7-57 23-157-34-157-59 0-34 97-39 157H25l-1-190h47c2 12-1 28 3 38 12-26 28-41 61-42" id="aL"/><path fill="#6db1ff" d="M115-3C79 11 28 4 28-45v-112H4v-33h27l15-45h31v45h36v33H77v99c-1 23 16 31 38 25v30" id="aM"/><path fill="#6db1ff" d="M24 0v-248h52V0H24" id="aN"/><path fill="#6db1ff" d="M24-248c120-7 223 5 221 122C244-46 201 0 124 0H24v-248zM76-40c74 7 117-18 117-86 0-67-45-88-117-82v168" id="aO"/><path fill="#333" d="M76-40C78 24 84 88 6 75V52C86 64 9-79 80-94c-40-6-34-59-34-106 1-29-11-41-40-38v-23c44-4 70 10 70 52 0 47-12 108 38 105v22c-26 1-39 14-38 42" id="aP"/><g id="k"><use transform="matrix(0.05,0,0,0.05,0,0)" xlink:href="#at"/><use transform="matrix(0.05,0,0,0.05,9,0)" xlink:href="#aw"/><use transform="matrix(0.05,0,0,0.05,12.949999999999998,0)" xlink:href="#af"/><use transform="matrix(0.05,0,0,0.05,16.9,0)" xlink:href="#aA"/><use transform="matrix(0.05,0,0,0.05,26.899999999999995,0)" xlink:href="#ah"/><use transform="matrix(0.05,0,0,0.05,36.9,0)" xlink:href="#aj"/><use transform="matrix(0.05,0,0,0.05,41.9,0)" xlink:href="#aC"/><use transform="matrix(0.05,0,0,0.05,51.900000000000006,0)" xlink:href="#af"/><use transform="matrix(0.05,0,0,0.05,55.85,0)" xlink:href="#aD"/><use transform="matrix(0.05,0,0,0.05,65.85,0)" xlink:href="#aE"/><use transform="matrix(0.05,0,0,0.05,76.35,0)" xlink:href="#aF"/><use transform="matrix(0.05,0,0,0.05,86.35,0)" xlink:href="#aG"/><use transform="matrix(0.05,0,0,0.05,92.35,0)" xlink:href="#aH"/><use transform="matrix(0.05,0,0,0.05,102.35,0)" xlink:href="#aI"/><use transform="matrix(0.05,0,0,0.05,107.34999999999998,0)" xlink:href="#aJ"/><use transform="matrix(0.05,0,0,0.05,112.34999999999998,0)" xlink:href="#aK"/><use transform="matrix(0.05,0,0,0.05,122.34999999999998,0)" xlink:href="#aL"/><use transform="matrix(0.05,0,0,0.05,133.29999999999998,0)" xlink:href="#aM"/><use transform="matrix(0.05,0,0,0.05,139.24999999999997,0)" xlink:href="#aN"/><use transform="matrix(0.05,0,0,0.05,144.24999999999997,0)" xlink:href="#aO"/><use transform="matrix(0.05,0,0,0.05,157.19999999999996,0)" xlink:href="#aP"/></g><path fill="#333" d="M234-2c-28 10-62 0-77-18C117 19 8 12 13-65c3-43 29-61 60-76-25-40-17-114 47-108 35 3 59 15 59 50 0 44-40 53-71 69 14 26 32 50 51 72 14-21 24-43 30-72l26 8c-9 33-21 57-38 82 13 13 33 22 57 15v23zM97-151c25-10 52-18 56-48-1-18-13-29-33-29-42 0-39 50-23 77zM42-66c-3 51 71 58 98 28-20-24-41-51-56-80-23 10-40 24-42 52" id="aQ"/><path fill="#e81313" d="M110-194c64 0 96 36 96 99 0 64-35 99-97 99-61 0-95-36-95-99 0-62 34-99 96-99zm-1 164c35 0 45-28 45-65 0-40-10-65-43-65-34 0-45 26-45 65 0 36 10 65 43 65" id="aR"/><path fill="#e81313" d="M133-34C117-15 103 5 69 4 32 3 11-16 11-54c-1-60 55-63 116-61 1-26-3-47-28-47-18 1-26 9-28 27l-52-2c7-38 36-58 82-57s74 22 75 68l1 82c-1 14 12 18 25 15v27c-30 8-71 5-69-32zm-48 3c29 0 43-24 42-57-32 0-66-3-65 30 0 17 8 27 23 27" id="aS"/><path fill="#e81313" d="M85 4C-2 5 27-109 22-190h50c7 57-23 150 33 157 60-5 35-97 40-157h50l1 190h-47c-2-12 1-28-3-38-12 25-28 42-61 42" id="aT"/><path fill="#e81313" d="M115-3C79 11 28 4 28-45v-112H4v-33h27l15-45h31v45h36v33H77v99c-1 23 16 31 38 25v30" id="aU"/><path fill="#e81313" d="M114-157C55-157 80-60 75 0H25v-261h50l-1 109c12-26 28-41 61-42 86-1 58 113 63 194h-50c-7-57 23-157-34-157" id="aV"/><path fill="#e81313" d="M240-174c0 40-23 61-54 70L253 0h-59l-57-94H76V0H24v-248c93 4 217-23 216 74zM76-134c48-2 112 12 112-38 0-48-66-32-112-35v73" id="aW"/><path fill="#e81313" d="M185-48c-13 30-37 53-82 52C43 2 14-33 14-96s30-98 90-98c62 0 83 45 84 108H66c0 31 8 55 39 56 18 0 30-7 34-22zm-45-69c5-46-57-63-70-21-2 6-4 13-4 21h74" id="aX"/><path fill="#e81313" d="M88-194c31-1 46 15 58 34l-1-101h50l1 261h-48c-2-10 0-23-3-31C134-8 116 4 84 4 32 4 16-41 15-95c0-56 19-97 73-99zm17 164c33 0 40-30 41-66 1-37-9-64-41-64s-38 30-39 65c0 43 13 65 39 65" id="aY"/><path fill="#e81313" d="M25-224v-37h50v37H25zM25 0v-190h50V0H25" id="aZ"/><path fill="#e81313" d="M135-150c-39-12-60 13-60 57V0H25l-1-190h47c2 13-1 29 3 40 6-28 27-53 61-41v41" id="ba"/><path fill="#e81313" d="M190-63c-7 42-38 67-86 67-59 0-84-38-90-98-12-110 154-137 174-36l-49 2c-2-19-15-32-35-32-30 0-35 28-38 64-6 74 65 87 74 30" id="bb"/><path fill="#e81313" d="M135-194c87-1 58 113 63 194h-50c-7-57 23-157-34-157-59 0-34 97-39 157H25l-1-190h47c2 12-1 28 3 38 12-26 28-41 61-42" id="bc"/><path fill="#e81313" d="M24 0v-248h195v40H76v63h132v40H76v65h150V0H24" id="bd"/><path fill="#e81313" d="M135-194c53 0 70 44 70 98 0 56-19 98-73 100-31 1-45-17-59-34 3 33 2 69 2 105H25l-1-265h48c2 10 0 23 3 31 11-24 29-35 60-35zM114-30c33 0 39-31 40-66 0-38-9-64-40-64-56 0-55 130 0 130" id="be"/><g id="l"><use transform="matrix(0.05,0,0,0.05,0,0)" xlink:href="#aQ"/><use transform="matrix(0.05,0,0,0.05,12,0)" xlink:href="#ay"/><use transform="matrix(0.05,0,0,0.05,17.95,0)" xlink:href="#aA"/><use transform="matrix(0.05,0,0,0.05,27.950000000000003,0)" xlink:href="#aD"/><use transform="matrix(0.05,0,0,0.05,37.95,0)" xlink:href="#af"/><use transform="matrix(0.05,0,0,0.05,41.900000000000006,0)" xlink:href="#ay"/><use transform="matrix(0.05,0,0,0.05,47.85000000000001,0)" xlink:href="#aA"/><use transform="matrix(0.05,0,0,0.05,57.85,0)" xlink:href="#at"/><use transform="matrix(0.05,0,0,0.05,66.85000000000001,0)" xlink:href="#aj"/><use transform="matrix(0.05,0,0,0.05,71.85000000000001,0)" xlink:href="#aC"/><use transform="matrix(0.05,0,0,0.05,81.85000000000001,0)" xlink:href="#am"/><use transform="matrix(0.05,0,0,0.05,91.85000000000001,0)" xlink:href="#ay"/><use transform="matrix(0.05,0,0,0.05,97.80000000000001,0)" xlink:href="#af"/><use transform="matrix(0.05,0,0,0.05,101.75000000000001,0)" xlink:href="#aE"/><use transform="matrix(0.05,0,0,0.05,112.25,0)" xlink:href="#aF"/><use transform="matrix(0.05,0,0,0.05,122.25,0)" xlink:href="#aG"/><use transform="matrix(0.05,0,0,0.05,128.25,0)" xlink:href="#aR"/><use transform="matrix(0.05,0,0,0.05,139.2,0)" xlink:href="#aS"/><use transform="matrix(0.05,0,0,0.05,149.2,0)" xlink:href="#aT"/><use transform="matrix(0.05,0,0,0.05,160.14999999999998,0)" xlink:href="#aU"/><use transform="matrix(0.05,0,0,0.05,166.09999999999997,0)" xlink:href="#aV"/><use transform="matrix(0.05,0,0,0.05,177.04999999999995,0)" xlink:href="#aW"/><use transform="matrix(0.05,0,0,0.05,189.99999999999994,0)" xlink:href="#aX"/><use transform="matrix(0.05,0,0,0.05,199.99999999999994,0)" xlink:href="#aY"/><use transform="matrix(0.05,0,0,0.05,210.94999999999993,0)" xlink:href="#aZ"/><use transform="matrix(0.05,0,0,0.05,215.94999999999993,0)" xlink:href="#ba"/><use transform="matrix(0.05,0,0,0.05,222.94999999999993,0)" xlink:href="#aX"/><use transform="matrix(0.05,0,0,0.05,232.94999999999993,0)" xlink:href="#bb"/><use transform="matrix(0.05,0,0,0.05,242.94999999999993,0)" xlink:href="#aU"/><use transform="matrix(0.05,0,0,0.05,248.89999999999992,0)" xlink:href="#aZ"/><use transform="matrix(0.05,0,0,0.05,253.89999999999992,0)" xlink:href="#aR"/><use transform="matrix(0.05,0,0,0.05,264.8499999999999,0)" xlink:href="#bc"/><use transform="matrix(0.05,0,0,0.05,275.7999999999999,0)" xlink:href="#bd"/><use transform="matrix(0.05,0,0,0.05,287.7999999999999,0)" xlink:href="#bc"/><use transform="matrix(0.05,0,0,0.05,298.7499999999999,0)" xlink:href="#aY"/><use transform="matrix(0.05,0,0,0.05,309.6999999999999,0)" xlink:href="#be"/><use transform="matrix(0.05,0,0,0.05,320.64999999999986,0)" xlink:href="#aR"/><use transform="matrix(0.05,0,0,0.05,331.59999999999985,0)" xlink:href="#aZ"/><use transform="matrix(0.05,0,0,0.05,336.59999999999985,0)" xlink:href="#bc"/><use transform="matrix(0.05,0,0,0.05,347.54999999999984,0)" xlink:href="#aU"/><use transform="matrix(0.05,0,0,0.05,353.49999999999983,0)" xlink:href="#aP"/></g><path fill="#333" d="M30 0v-248h33v221h125V0H30" id="bf"/><g id="m"><use transform="matrix(0.05,0,0,0.05,0,0)" xlink:href="#bf"/><use transform="matrix(0.05,0,0,0.05,10,0)" xlink:href="#au"/><use transform="matrix(0.05,0,0,0.05,20,0)" xlink:href="#ag"/><use transform="matrix(0.05,0,0,0.05,30,0)" xlink:href="#af"/><use transform="matrix(0.05,0,0,0.05,33.95,0)" xlink:href="#ah"/></g><g id="n"><use transform="matrix(0.05,0,0,0.05,0,0)" xlink:href="#ao"/><use transform="matrix(0.05,0,0,0.05,10,0)" xlink:href="#ax"/><use transform="matrix(0.05,0,0,0.05,20,0)" xlink:href="#ag"/><use transform="matrix(0.05,0,0,0.05,30,0)" xlink:href="#aA"/></g><path fill="#333" d="M212-179c-10-28-35-45-73-45-59 0-87 40-87 99 0 60 29 101 89 101 43 0 62-24 78-52l27 14C228-24 195 4 139 4 59 4 22-46 18-125c-6-104 99-153 187-111 19 9 31 26 39 46" id="bg"/><g id="o"><use transform="matrix(0.05,0,0,0.05,0,0)" xlink:href="#bg"/><use transform="matrix(0.05,0,0,0.05,12.950000000000001,0)" xlink:href="#ay"/><use transform="matrix(0.05,0,0,0.05,18.900000000000002,0)" xlink:href="#aA"/><use transform="matrix(0.05,0,0,0.05,28.900000000000002,0)" xlink:href="#aD"/><use transform="matrix(0.05,0,0,0.05,38.900000000000006,0)" xlink:href="#aA"/><use transform="matrix(0.05,0,0,0.05,48.900000000000006,0)" xlink:href="#ah"/><use transform="matrix(0.05,0,0,0.05,58.900000000000006,0)" xlink:href="#aj"/><use transform="matrix(0.05,0,0,0.05,63.900000000000006,0)" xlink:href="#af"/><use transform="matrix(0.05,0,0,0.05,67.85000000000001,0)" xlink:href="#ax"/><use transform="matrix(0.05,0,0,0.05,77.85000000000001,0)" xlink:href="#aw"/><use transform="matrix(0.05,0,0,0.05,81.80000000000001,0)" xlink:href="#ap"/></g><path fill="#333" d="M205 0l-28-72H64L36 0H1l101-248h38L239 0h-34zm-38-99l-47-123c-12 45-31 82-46 123h93" id="bh"/><g id="p"><use transform="matrix(0.05,0,0,0.05,0,0)" xlink:href="#bh"/><use transform="matrix(0.05,0,0,0.05,12,0)" xlink:href="#am"/><use transform="matrix(0.05,0,0,0.05,22,0)" xlink:href="#aj"/><use transform="matrix(0.05,0,0,0.05,27,0)" xlink:href="#ak"/><use transform="matrix(0.05,0,0,0.05,37,0)" xlink:href="#aA"/><use transform="matrix(0.05,0,0,0.05,47,0)" xlink:href="#ah"/><use transform="matrix(0.05,0,0,0.05,57,0)" xlink:href="#aj"/><use transform="matrix(0.05,0,0,0.05,62,0)" xlink:href="#af"/><use transform="matrix(0.05,0,0,0.05,65.95,0)" xlink:href="#at"/><use transform="matrix(0.05,0,0,0.05,74.95,0)" xlink:href="#ax"/><use transform="matrix(0.05,0,0,0.05,84.95,0)" xlink:href="#aj"/><use transform="matrix(0.05,0,0,0.05,89.95,0)" xlink:href="#af"/><use transform="matrix(0.05,0,0,0.05,93.9,0)" xlink:href="#au"/><use transform="matrix(0.05,0,0,0.05,103.9,0)" xlink:href="#ah"/></g><path fill="#282c33" d="M106-169C34-169 62-67 57 0H25v-261h32l-1 103c12-21 28-36 61-36 89 0 53 116 60 194h-32v-121c2-32-8-49-39-48" id="bi"/><path fill="#282c33" d="M59-47c-2 24 18 29 38 22v24C64 9 27 4 27-40v-127H5v-23h24l9-43h21v43h35v23H59v120" id="bj"/><path fill="#282c33" d="M115-194c55 1 70 41 70 98S169 2 115 4C84 4 66-9 55-30l1 105H24l-1-265h31l2 30c10-21 28-34 59-34zm-8 174c40 0 45-34 45-75s-6-73-45-74c-42 0-51 32-51 76 0 43 10 73 51 73" id="bk"/><path fill="#282c33" d="M135-143c-3-34-86-38-87 0 15 53 115 12 119 90S17 21 10-45l28-5c4 36 97 45 98 0-10-56-113-15-118-90-4-57 82-63 122-42 12 7 21 19 24 35" id="bl"/><path fill="#282c33" d="M33-154v-36h34v36H33zM33 0v-36h34V0H33" id="bm"/><path fill="#282c33" d="M0 4l72-265h28L28 4H0" id="bn"/><path fill="#282c33" d="M96-169c-40 0-48 33-48 73s9 75 48 75c24 0 41-14 43-38l32 2c-6 37-31 61-74 61-59 0-76-41-82-99-10-93 101-131 147-64 4 7 5 14 7 22l-32 3c-4-21-16-35-41-35" id="bo"/><path fill="#282c33" d="M24 0v-261h32V0H24" id="bp"/><path fill="#282c33" d="M24-231v-30h32v30H24zM24 0v-190h32V0H24" id="bq"/><path fill="#282c33" d="M100-194c63 0 86 42 84 106H49c0 40 14 67 53 68 26 1 43-12 49-29l28 8c-11 28-37 45-77 45C44 4 14-33 15-96c1-61 26-98 85-98zm52 81c6-60-76-77-97-28-3 7-6 17-6 28h103" id="br"/><path fill="#282c33" d="M117-194c89-4 53 116 60 194h-32v-121c0-31-8-49-39-48C34-167 62-67 57 0H25l-1-190h30c1 10-1 24 2 32 11-22 29-35 61-36" id="bs"/><path fill="#54c45e" d="M133-34C117-15 103 5 69 4 32 3 11-16 11-54c-1-60 55-63 116-61 1-26-3-47-28-47-18 1-26 9-28 27l-52-2c7-38 36-58 82-57s74 22 75 68l1 82c-1 14 12 18 25 15v27c-30 8-71 5-69-32zm-48 3c29 0 43-24 42-57-32 0-66-3-65 30 0 17 8 27 23 27" id="bt"/><path fill="#54c45e" d="M85 4C-2 5 27-109 22-190h50c7 57-23 150 33 157 60-5 35-97 40-157h50l1 190h-47c-2-12 1-28-3-38-12 25-28 42-61 42" id="bu"/><path fill="#54c45e" d="M115-3C79 11 28 4 28-45v-112H4v-33h27l15-45h31v45h36v33H77v99c-1 23 16 31 38 25v30" id="bv"/><path fill="#54c45e" d="M114-157C55-157 80-60 75 0H25v-261h50l-1 109c12-26 28-41 61-42 86-1 58 113 63 194h-50c-7-57 23-157-34-157" id="bw"/><path fill="#54c45e" d="M67-125c0 53 21 87 73 88 37 1 54-22 65-47l45 17C233-25 199 4 140 4 58 4 20-42 15-125 8-235 124-281 211-232c18 10 29 29 36 50l-46 12c-8-25-30-41-62-41-52 0-71 34-72 86" id="bx"/><path fill="#54c45e" d="M110-194c64 0 96 36 96 99 0 64-35 99-97 99-61 0-95-36-95-99 0-62 34-99 96-99zm-1 164c35 0 45-28 45-65 0-40-10-65-43-65-34 0-45 26-45 65 0 36 10 65 43 65" id="by"/><path fill="#54c45e" d="M88-194c31-1 46 15 58 34l-1-101h50l1 261h-48c-2-10 0-23-3-31C134-8 116 4 84 4 32 4 16-41 15-95c0-56 19-97 73-99zm17 164c33 0 40-30 41-66 1-37-9-64-41-64s-38 30-39 65c0 43 13 65 39 65" id="bz"/><path fill="#54c45e" d="M185-48c-13 30-37 53-82 52C43 2 14-33 14-96s30-98 90-98c62 0 83 45 84 108H66c0 31 8 55 39 56 18 0 30-7 34-22zm-45-69c5-46-57-63-70-21-2 6-4 13-4 21h74" id="bA"/><g id="q"><use transform="matrix(0.05,0,0,0.05,0,0)" xlink:href="#bi"/><use transform="matrix(0.05,0,0,0.05,10,0)" xlink:href="#bj"/><use transform="matrix(0.05,0,0,0.05,15,0)" xlink:href="#bj"/><use transform="matrix(0.05,0,0,0.05,20,0)" xlink:href="#bk"/><use transform="matrix(0.05,0,0,0.05,30,0)" xlink:href="#bl"/><use transform="matrix(0.05,0,0,0.05,39,0)" xlink:href="#bm"/><use transform="matrix(0.05,0,0,0.05,44,0)" xlink:href="#bn"/><use transform="matrix(0.05,0,0,0.05,49,0)" xlink:href="#bn"/><use transform="matrix(0.05,0,0,0.05,54,0)" xlink:href="#bo"/><use transform="matrix(0.05,0,0,0.05,63,0)" xlink:href="#bp"/><use transform="matrix(0.05,0,0,0.05,66.95,0)" xlink:href="#bq"/><use transform="matrix(0.05,0,0,0.05,70.9,0)" xlink:href="#br"/><use transform="matrix(0.05,0,0,0.05,80.9,0)" xlink:href="#bs"/><use transform="matrix(0.05,0,0,0.05,90.9,0)" xlink:href="#bj"/><use transform="matrix(0.05,0,0,0.05,95.9,0)" xlink:href="#bn"/><use transform="matrix(0.05,0,0,0.05,100.9,0)" xlink:href="#aR"/><use transform="matrix(0.05,0,0,0.05,111.85000000000001,0)" xlink:href="#aS"/><use transform="matrix(0.05,0,0,0.05,121.85000000000001,0)" xlink:href="#aT"/><use transform="matrix(0.05,0,0,0.05,132.8,0)" xlink:href="#aU"/><use transform="matrix(0.05,0,0,0.05,138.75,0)" xlink:href="#aV"/><use transform="matrix(0.05,0,0,0.05,149.7,0)" xlink:href="#aW"/><use transform="matrix(0.05,0,0,0.05,162.64999999999998,0)" xlink:href="#aX"/><use transform="matrix(0.05,0,0,0.05,172.64999999999998,0)" xlink:href="#aY"/><use transform="matrix(0.05,0,0,0.05,183.59999999999997,0)" xlink:href="#aZ"/><use transform="matrix(0.05,0,0,0.05,188.59999999999997,0)" xlink:href="#ba"/><use transform="matrix(0.05,0,0,0.05,195.59999999999997,0)" xlink:href="#aX"/><use transform="matrix(0.05,0,0,0.05,205.59999999999997,0)" xlink:href="#bb"/><use transform="matrix(0.05,0,0,0.05,215.59999999999997,0)" xlink:href="#aU"/><use transform="matrix(0.05,0,0,0.05,221.54999999999995,0)" xlink:href="#aZ"/><use transform="matrix(0.05,0,0,0.05,226.54999999999995,0)" xlink:href="#aR"/><use transform="matrix(0.05,0,0,0.05,237.49999999999991,0)" xlink:href="#bc"/><use transform="matrix(0.05,0,0,0.05,248.44999999999993,0)" xlink:href="#bd"/><use transform="matrix(0.05,0,0,0.05,260.44999999999993,0)" xlink:href="#bc"/><use transform="matrix(0.05,0,0,0.05,271.3999999999999,0)" xlink:href="#aY"/><use transform="matrix(0.05,0,0,0.05,282.3499999999999,0)" xlink:href="#be"/><use transform="matrix(0.05,0,0,0.05,293.2999999999999,0)" xlink:href="#aR"/><use transform="matrix(0.05,0,0,0.05,304.2499999999999,0)" xlink:href="#aZ"/><use transform="matrix(0.05,0,0,0.05,309.2499999999999,0)" xlink:href="#bc"/><use transform="matrix(0.05,0,0,0.05,320.1999999999999,0)" xlink:href="#aU"/><use transform="matrix(0.05,0,0,0.05,326.14999999999986,0)" xlink:href="#aB"/><use transform="matrix(0.05,0,0,0.05,336.14999999999986,0)" xlink:href="#at"/><use transform="matrix(0.05,0,0,0.05,345.14999999999986,0)" xlink:href="#au"/><use transform="matrix(0.05,0,0,0.05,355.14999999999986,0)" xlink:href="#aD"/><use transform="matrix(0.05,0,0,0.05,365.14999999999986,0)" xlink:href="#aA"/><use transform="matrix(0.05,0,0,0.05,375.14999999999986,0)" xlink:href="#aE"/><use transform="matrix(0.05,0,0,0.05,385.64999999999986,0)" xlink:href="#aF"/><use transform="matrix(0.05,0,0,0.05,395.64999999999986,0)" xlink:href="#aG"/><use transform="matrix(0.05,0,0,0.05,401.64999999999986,0)" xlink:href="#bt"/><use transform="matrix(0.05,0,0,0.05,411.64999999999986,0)" xlink:href="#bu"/><use transform="matrix(0.05,0,0,0.05,422.59999999999985,0)" xlink:href="#bv"/><use transform="matrix(0.05,0,0,0.05,428.54999999999984,0)" xlink:href="#bw"/><use transform="matrix(0.05,0,0,0.05,439.49999999999983,0)" xlink:href="#bx"/><use transform="matrix(0.05,0,0,0.05,452.4499999999998,0)" xlink:href="#by"/><use transform="matrix(0.05,0,0,0.05,463.39999999999986,0)" xlink:href="#bz"/><use transform="matrix(0.05,0,0,0.05,474.34999999999974,0)" xlink:href="#bA"/><use transform="matrix(0.05,0,0,0.05,484.34999999999974,0)" xlink:href="#aP"/></g><path fill="#282c33" d="M177-190C167-65 218 103 67 71c-23-6-38-20-44-43l32-5c15 47 100 32 89-28v-30C133-14 115 1 83 1 29 1 15-40 15-95c0-56 16-97 71-98 29-1 48 16 59 35 1-10 0-23 2-32h30zM94-22c36 0 50-32 50-73 0-42-14-75-50-75-39 0-46 34-46 75s6 73 46 73" id="bB"/><path fill="#282c33" d="M84 4C-5 8 30-112 23-190h32v120c0 31 7 50 39 49 72-2 45-101 50-169h31l1 190h-30c-1-10 1-25-2-33-11 22-28 36-60 37" id="bC"/><path fill="#282c33" d="M115-194c53 0 69 39 70 98 0 66-23 100-70 100C84 3 66-7 56-30L54 0H23l1-261h32v101c10-23 28-34 59-34zm-8 174c40 0 45-34 45-75 0-40-5-75-45-74-42 0-51 32-51 76 0 43 10 73 51 73" id="bD"/><path fill="#282c33" d="M33 0v-38h34V0H33" id="bE"/><path fill="#282c33" d="M100-194c62-1 85 37 85 99 1 63-27 99-86 99S16-35 15-95c0-66 28-99 85-99zM99-20c44 1 53-31 53-75 0-43-8-75-51-75s-53 32-53 75 10 74 51 75" id="bF"/><path fill="#282c33" d="M210-169c-67 3-38 105-44 169h-31v-121c0-29-5-50-35-48C34-165 62-65 56 0H25l-1-190h30c1 10-1 24 2 32 10-44 99-50 107 0 11-21 27-35 58-36 85-2 47 119 55 194h-31v-121c0-29-5-49-35-48" id="bG"/><path fill="#282c33" d="M141-36C126-15 110 5 73 4 37 3 15-17 15-53c-1-64 63-63 125-63 3-35-9-54-41-54-24 1-41 7-42 31l-33-3c5-37 33-52 76-52 45 0 72 20 72 64v82c-1 20 7 32 28 27v20c-31 9-61-2-59-35zM48-53c0 20 12 33 32 33 41-3 63-29 60-74-43 2-92-5-92 41" id="bH"/><path fill="#282c33" d="M-5 72V49h209v23H-5" id="bI"/><path fill="#282c33" d="M143 0L79-87 56-68V0H24v-261h32v163l83-92h37l-77 82L181 0h-38" id="bJ"/><path fill="#282c33" d="M103-251c84 0 111 97 45 133-19 10-37 24-39 52H78c0-63 77-55 77-114 0-30-21-42-52-43-32 0-53 17-56 46l-32-2c7-45 34-72 88-72zM77 0v-35h34V0H77" id="bK"/><g id="r"><use transform="matrix(0.056607564470941354,0,0,0.056607564470941354,0,0)" xlink:href="#bi"/><use transform="matrix(0.056607564470941354,0,0,0.056607564470941354,11.32151289418827,0)" xlink:href="#bj"/><use transform="matrix(0.056607564470941354,0,0,0.056607564470941354,16.982269341282404,0)" xlink:href="#bj"/><use transform="matrix(0.056607564470941354,0,0,0.056607564470941354,22.64302578837654,0)" xlink:href="#bk"/><use transform="matrix(0.056607564470941354,0,0,0.056607564470941354,33.96453868256481,0)" xlink:href="#bl"/><use transform="matrix(0.056607564470941354,0,0,0.056607564470941354,44.15390028733425,0)" xlink:href="#bm"/><use transform="matrix(0.056607564470941354,0,0,0.056607564470941354,49.81465673442839,0)" xlink:href="#bn"/><use transform="matrix(0.056607564470941354,0,0,0.056607564470941354,55.475413181522526,0)" xlink:href="#bn"/><use transform="matrix(0.056607564470941354,0,0,0.056607564470941354,61.13616962861666,0)" xlink:href="#bB"/><use transform="matrix(0.056607564470941354,0,0,0.056607564470941354,72.45768252280493,0)" xlink:href="#bq"/><use transform="matrix(0.056607564470941354,0,0,0.056607564470941354,76.9296801160093,0)" xlink:href="#bj"/><use transform="matrix(0.056607564470941354,0,0,0.056607564470941354,82.59043656310342,0)" xlink:href="#bi"/><use transform="matrix(0.056607564470941354,0,0,0.056607564470941354,93.9119494572917,0)" xlink:href="#bC"/><use transform="matrix(0.056607564470941354,0,0,0.056607564470941354,105.23346235147997,0)" xlink:href="#bD"/><use transform="matrix(0.056607564470941354,0,0,0.056607564470941354,116.55497524566825,0)" xlink:href="#bE"/><use transform="matrix(0.056607564470941354,0,0,0.056607564470941354,122.21573169276239,0)" xlink:href="#bo"/><use transform="matrix(0.056607564470941354,0,0,0.056607564470941354,132.4050932975318,0)" xlink:href="#bF"/><use transform="matrix(0.056607564470941354,0,0,0.056607564470941354,143.72660619172007,0)" xlink:href="#bG"/><use transform="matrix(0.056607564470941354,0,0,0.056607564470941354,160.65226796853153,0)" xlink:href="#bn"/><use transform="matrix(0.056607564470941354,0,0,0.056607564470941354,166.31302441562568,0)" xlink:href="#bp"/><use transform="matrix(0.056607564470941354,0,0,0.056607564470941354,170.78502200883005,0)" xlink:href="#bF"/><use transform="matrix(0.056607564470941354,0,0,0.056607564470941354,182.10653490301831,0)" xlink:href="#bB"/><use transform="matrix(0.056607564470941354,0,0,0.056607564470941354,193.42804779720657,0)" xlink:href="#bq"/><use transform="matrix(0.056607564470941354,0,0,0.056607564470941354,197.90004539041095,0)" xlink:href="#bs"/><use transform="matrix(0.056607564470941354,0,0,0.056607564470941354,209.2215582845992,0)" xlink:href="#bn"/><use transform="matrix(0.056607564470941354,0,0,0.056607564470941354,214.88231473169336,0)" xlink:href="#bF"/><use transform="matrix(0.056607564470941354,0,0,0.056607564470941354,226.20382762588162,0)" xlink:href="#bH"/><use transform="matrix(0.056607564470941354,0,0,0.056607564470941354,237.52534052006988,0)" xlink:href="#bC"/><use transform="matrix(0.056607564470941354,0,0,0.056607564470941354,248.84685341425813,0)" xlink:href="#bj"/><use transform="matrix(0.056607564470941354,0,0,0.056607564470941354,254.50760986135228,0)" xlink:href="#bi"/><use transform="matrix(0.056607564470941354,0,0,0.056607564470941354,265.82912275554054,0)" xlink:href="#bn"/><use transform="matrix(0.0510520089153858,0,0,0.0510520089153858,271.48987920263465,0)" xlink:href="#bH"/><use transform="matrix(0.0510520089153858,0,0,0.0510520089153858,281.7002809857118,0)" xlink:href="#bo"/><use transform="matrix(0.0510520089153858,0,0,0.0510520089153858,290.88964259048123,0)" xlink:href="#bo"/><use transform="matrix(0.0510520089153858,0,0,0.0510520089153858,300.07900419525066,0)" xlink:href="#br"/><use transform="matrix(0.0510520089153858,0,0,0.0510520089153858,310.2894059783278,0)" xlink:href="#bl"/><use transform="matrix(0.0510520089153858,0,0,0.0510520089153858,319.47876758309724,0)" xlink:href="#bl"/><use transform="matrix(0.0510520089153858,0,0,0.0510520089153858,328.66812918786667,0)" xlink:href="#bI"/><use transform="matrix(0.0510520089153858,0,0,0.0510520089153858,338.8785309709438,0)" xlink:href="#bj"/><use transform="matrix(0.0510520089153858,0,0,0.0510520089153858,343.9837318624824,0)" xlink:href="#bF"/><use transform="matrix(0.0510520089153858,0,0,0.0510520089153858,354.19413364555953,0)" xlink:href="#bJ"/><use transform="matrix(0.0510520089153858,0,0,0.0510520089153858,363.38349525032896,0)" xlink:href="#br"/><use transform="matrix(0.0510520089153858,0,0,0.0510520089153858,373.5938970334061,0)" xlink:href="#bs"/><use transform="matrix(0.056607564470941354,0,0,0.056607564470941354,383.80429881648325,0)" xlink:href="#bK"/></g><path fill="#282c33" d="M85-194c31 0 48 13 60 33l-1-100h32l1 261h-30c-2-10 0-23-3-31C134-8 116 4 85 4 32 4 16-35 15-94c0-66 23-100 70-100zm9 24c-40 0-46 34-46 75 0 40 6 74 45 74 42 0 51-32 51-76 0-42-9-74-50-73" id="bL"/><path fill="#282c33" d="M18-150v-26h174v26H18zm0 90v-26h174v26H18" id="bM"/><path fill="#282c33" d="M194-70c0 46-34 64-81 66v29H91V-4C42-5 12-27 4-67l30-6c5 28 25 41 57 43v-87c-38-9-76-20-76-67 1-42 33-58 76-59v-23h22v23c45 0 67 20 76 56l-31 6c-5-23-18-35-45-37v78c41 10 81 20 81 70zm-81 41c51 7 71-66 19-77-6-2-12-4-19-6v83zM91-219c-47-6-63 57-18 69 6 2 12 3 18 5v-74" id="bN"/><path fill="#282c33" d="M39-94c74 12-11 154 75 146v23c-44 4-70-10-70-52C44-23 55-84 6-82v-22c81 4-7-162 84-157h24v23c-82-15-2 131-75 144" id="bO"/><path fill="#282c33" d="M76-40C78 24 84 88 6 75V52C86 64 9-79 80-94c-40-6-34-59-34-106 1-29-11-41-40-38v-23c44-4 70 10 70 52 0 47-12 108 38 105v22c-26 1-39 14-38 42" id="bP"/><g id="s"><use transform="matrix(0.0510520089153858,0,0,0.0510520089153858,0,0)" xlink:href="#bo"/><use transform="matrix(0.0510520089153858,0,0,0.0510520089153858,9.189361604769443,0)" xlink:href="#bp"/><use transform="matrix(0.0510520089153858,0,0,0.0510520089153858,13.222470309084922,0)" xlink:href="#bq"/><use transform="matrix(0.0510520089153858,0,0,0.0510520089153858,17.2555790134004,0)" xlink:href="#br"/><use transform="matrix(0.0510520089153858,0,0,0.0510520089153858,27.46598079647756,0)" xlink:href="#bs"/><use transform="matrix(0.0510520089153858,0,0,0.0510520089153858,37.67638257955472,0)" xlink:href="#bj"/><use transform="matrix(0.0510520089153858,0,0,0.0510520089153858,42.7815834710933,0)" xlink:href="#bI"/><use transform="matrix(0.0510520089153858,0,0,0.0510520089153858,52.99198525417046,0)" xlink:href="#bq"/><use transform="matrix(0.0510520089153858,0,0,0.0510520089153858,57.02509395848594,0)" xlink:href="#bL"/><use transform="matrix(0.0510520089153858,0,0,0.0510520089153858,67.2354957415631,0)" xlink:href="#bM"/><use transform="matrix(0.0510520089153858,0,0,0.0510520089153858,77.95641761379412,0)" xlink:href="#bN"/><use transform="matrix(0.0510520089153858,0,0,0.0510520089153858,88.16681939687128,0)" xlink:href="#bO"/><use transform="matrix(0.0510520089153858,0,0,0.0510520089153858,94.29306046671758,0)" xlink:href="#aH"/><use transform="matrix(0.0510520089153858,0,0,0.0510520089153858,104.50346224979474,0)" xlink:href="#aI"/><use transform="matrix(0.0510520089153858,0,0,0.0510520089153858,109.60866314133334,0)" xlink:href="#aJ"/><use transform="matrix(0.0510520089153858,0,0,0.0510520089153858,114.71386403287188,0)" xlink:href="#aK"/><use transform="matrix(0.0510520089153858,0,0,0.0510520089153858,124.92426581594904,0)" xlink:href="#aL"/><use transform="matrix(0.0510520089153858,0,0,0.0510520089153858,136.10465576841855,0)" xlink:href="#aM"/><use transform="matrix(0.0510520089153858,0,0,0.0510520089153858,142.17984482934946,0)" xlink:href="#aN"/><use transform="matrix(0.0510520089153858,0,0,0.0510520089153858,147.28504572088804,0)" xlink:href="#aO"/><use transform="matrix(0.0510520089153858,0,0,0.0510520089153858,160.50751602997295,0)" xlink:href="#bP"/></g><path fill="#282c33" d="M234-2c-28 10-62 0-77-18C117 19 8 12 13-65c3-43 29-61 60-76-25-40-17-114 47-108 35 3 59 15 59 50 0 44-40 53-71 69 14 26 32 50 51 72 14-21 24-43 30-72l26 8c-9 33-21 57-38 82 13 13 33 22 57 15v23zM97-151c25-10 52-18 56-48-1-18-13-29-33-29-42 0-39 50-23 77zM42-66c-3 51 71 58 98 28-20-24-41-51-56-80-23 10-40 24-42 52" id="bQ"/><path fill="#282c33" d="M114-163C36-179 61-72 57 0H25l-1-190h30c1 12-1 29 2 39 6-27 23-49 58-41v29" id="bR"/><path fill="#6db1ff" d="M169-182c-1-43-94-46-97-3 18 66 151 10 154 114 3 95-165 93-204 36-6-8-10-19-12-30l50-8c3 46 112 56 116 5-17-69-150-10-154-114-4-87 153-88 188-35 5 8 8 18 10 28" id="bS"/><path fill="#6db1ff" d="M135-150c-39-12-60 13-60 57V0H25l-1-190h47c2 13-1 29 3 40 6-28 27-53 61-41v41" id="bT"/><g id="t"><use transform="matrix(0.0510520089153858,0,0,0.0510520089153858,0,0)" xlink:href="#bQ"/><use transform="matrix(0.0510520089153858,0,0,0.0510520089153858,12.252482139692592,0)" xlink:href="#bo"/><use transform="matrix(0.0510520089153858,0,0,0.0510520089153858,21.441843744462034,0)" xlink:href="#bp"/><use transform="matrix(0.0510520089153858,0,0,0.0510520089153858,25.47495244877751,0)" xlink:href="#bq"/><use transform="matrix(0.0510520089153858,0,0,0.0510520089153858,29.508061153092992,0)" xlink:href="#br"/><use transform="matrix(0.0510520089153858,0,0,0.0510520089153858,39.71846293617015,0)" xlink:href="#bs"/><use transform="matrix(0.0510520089153858,0,0,0.0510520089153858,49.92886471924731,0)" xlink:href="#bj"/><use transform="matrix(0.0510520089153858,0,0,0.0510520089153858,55.03406561078589,0)" xlink:href="#bI"/><use transform="matrix(0.0510520089153858,0,0,0.0510520089153858,65.24446739386305,0)" xlink:href="#bl"/><use transform="matrix(0.0510520089153858,0,0,0.0510520089153858,74.43382899863249,0)" xlink:href="#br"/><use transform="matrix(0.0510520089153858,0,0,0.0510520089153858,84.64423078170965,0)" xlink:href="#bo"/><use transform="matrix(0.0510520089153858,0,0,0.0510520089153858,93.8335923864791,0)" xlink:href="#bR"/><use transform="matrix(0.0510520089153858,0,0,0.0510520089153858,99.90878144741,0)" xlink:href="#br"/><use transform="matrix(0.0510520089153858,0,0,0.0510520089153858,110.11918323048717,0)" xlink:href="#bj"/><use transform="matrix(0.0510520089153858,0,0,0.0510520089153858,115.22438412202574,0)" xlink:href="#bM"/><use transform="matrix(0.0510520089153858,0,0,0.0510520089153858,125.94530599425676,0)" xlink:href="#bN"/><use transform="matrix(0.0510520089153858,0,0,0.0510520089153858,136.15570777733393,0)" xlink:href="#bO"/><use transform="matrix(0.0510520089153858,0,0,0.0510520089153858,142.28194884718022,0)" xlink:href="#aH"/><use transform="matrix(0.0510520089153858,0,0,0.0510520089153858,152.49235063025736,0)" xlink:href="#aI"/><use transform="matrix(0.0510520089153858,0,0,0.0510520089153858,157.59755152179594,0)" xlink:href="#aJ"/><use transform="matrix(0.0510520089153858,0,0,0.0510520089153858,162.7027524133345,0)" xlink:href="#aK"/><use transform="matrix(0.0510520089153858,0,0,0.0510520089153858,172.91315419641165,0)" xlink:href="#aL"/><use transform="matrix(0.0510520089153858,0,0,0.0510520089153858,184.09354414888114,0)" xlink:href="#aM"/><use transform="matrix(0.0510520089153858,0,0,0.0510520089153858,190.16873320981205,0)" xlink:href="#bS"/><use transform="matrix(0.0510520089153858,0,0,0.0510520089153858,202.42121534950465,0)" xlink:href="#aK"/><use transform="matrix(0.0510520089153858,0,0,0.0510520089153858,212.6316171325818,0)" xlink:href="#aH"/><use transform="matrix(0.0510520089153858,0,0,0.0510520089153858,222.84201891565897,0)" xlink:href="#bT"/><use transform="matrix(0.0510520089153858,0,0,0.0510520089153858,229.98930016381297,0)" xlink:href="#aK"/><use transform="matrix(0.0510520089153858,0,0,0.0510520089153858,240.19970194689014,0)" xlink:href="#aM"/><use transform="matrix(0.0510520089153858,0,0,0.0510520089153858,246.27489100782105,0)" xlink:href="#bP"/></g><g id="u"><use transform="matrix(0.0510520089153858,0,0,0.0510520089153858,0,0)" xlink:href="#bQ"/><use transform="matrix(0.0510520089153858,0,0,0.0510520089153858,12.252482139692592,0)" xlink:href="#bo"/><use transform="matrix(0.0510520089153858,0,0,0.0510520089153858,21.441843744462034,0)" xlink:href="#bF"/><use transform="matrix(0.0510520089153858,0,0,0.0510520089153858,31.652245527539193,0)" xlink:href="#bL"/><use transform="matrix(0.0510520089153858,0,0,0.0510520089153858,41.86264731061635,0)" xlink:href="#br"/><use transform="matrix(0.0510520089153858,0,0,0.0510520089153858,52.07304909369351,0)" xlink:href="#bM"/><use transform="matrix(0.0510520089153858,0,0,0.0510520089153858,62.79397096592453,0)" xlink:href="#bN"/><use transform="matrix(0.0510520089153858,0,0,0.0510520089153858,73.00437274900169,0)" xlink:href="#bO"/><use transform="matrix(0.0510520089153858,0,0,0.0510520089153858,79.13061381884799,0)" xlink:href="#bt"/><use transform="matrix(0.0510520089153858,0,0,0.0510520089153858,89.34101560192515,0)" xlink:href="#bu"/><use transform="matrix(0.0510520089153858,0,0,0.0510520089153858,100.52140555439465,0)" xlink:href="#bv"/><use transform="matrix(0.0510520089153858,0,0,0.0510520089153858,106.59659461532554,0)" xlink:href="#bw"/><use transform="matrix(0.0510520089153858,0,0,0.0510520089153858,117.77698456779504,0)" xlink:href="#bx"/><use transform="matrix(0.0510520089153858,0,0,0.0510520089153858,130.99945487687995,0)" xlink:href="#by"/><use transform="matrix(0.0510520089153858,0,0,0.0510520089153858,142.17984482934943,0)" xlink:href="#bz"/><use transform="matrix(0.0510520089153858,0,0,0.0510520089153858,153.36023478181892,0)" xlink:href="#bA"/><use transform="matrix(0.0510520089153858,0,0,0.0510520089153858,163.57063656489606,0)" xlink:href="#bP"/></g><path fill="#333" d="M12 0v-35l95-120H19v-35h142v35L67-36h103V0H12" id="bU"/><path fill="#333" d="M133-34C117-15 103 5 69 4 32 3 11-16 11-54c-1-60 55-63 116-61 1-26-3-47-28-47-18 1-26 9-28 27l-52-2c7-38 36-58 82-57s74 22 75 68l1 82c-1 14 12 18 25 15v27c-30 8-71 5-69-32zm-48 3c29 0 43-24 42-57-32 0-66-3-65 30 0 17 8 27 23 27" id="bV"/><g id="v"><use transform="matrix(0.05286051576753077,0,0,0.05286051576753077,0,0)" xlink:href="#R"/><use transform="matrix(0.05286051576753077,0,0,0.05286051576753077,13.69087358379047,0)" xlink:href="#S"/><use transform="matrix(0.05286051576753077,0,0,0.05286051576753077,25.267326536879708,0)" xlink:href="#T"/><use transform="matrix(0.05286051576753077,0,0,0.05286051576753077,31.55772791321587,0)" xlink:href="#U"/><use transform="matrix(0.05286051576753077,0,0,0.05286051576753077,43.13418086630511,0)" xlink:href="#K"/><use transform="matrix(0.05286051576753077,0,0,0.05286051576753077,54.710633819394346,0)" xlink:href="#L"/><use transform="matrix(0.05286051576753077,0,0,0.05286051576753077,62.11110602684866,0)" xlink:href="#ac"/><use transform="matrix(0.05286051576753077,0,0,0.05286051576753077,67.39715760360173,0)" xlink:href="#bU"/><use transform="matrix(0.05286051576753077,0,0,0.05286051576753077,76.91205044175726,0)" xlink:href="#bV"/><use transform="matrix(0.05286051576753077,0,0,0.05286051576753077,87.48415359526341,0)" xlink:href="#T"/><use transform="matrix(0.05286051576753077,0,0,0.05286051576753077,93.77455497159957,0)" xlink:href="#ac"/><use transform="matrix(0.05286051576753077,0,0,0.05286051576753077,99.06060654835265,0)" xlink:href="#K"/><use transform="matrix(0.05286051576753077,0,0,0.05286051576753077,110.63705950144191,0)" xlink:href="#ad"/></g><path fill="#333" d="M169-182c-1-43-94-46-97-3 18 66 151 10 154 114 3 95-165 93-204 36-6-8-10-19-12-30l50-8c3 46 112 56 116 5-17-69-150-10-154-114-4-87 153-88 188-35 5 8 8 18 10 28" id="bW"/><path fill="#333" d="M128 0H69L1-190h53L99-40l48-150h52" id="bX"/><g id="w"><use transform="matrix(0.05286051576753077,0,0,0.05286051576753077,0,0)" xlink:href="#bW"/><use transform="matrix(0.05286051576753077,0,0,0.05286051576753077,12.686523784207385,0)" xlink:href="#aa"/><use transform="matrix(0.05286051576753077,0,0,0.05286051576753077,23.258626937713537,0)" xlink:href="#L"/><use transform="matrix(0.05286051576753077,0,0,0.05286051576753077,30.659099145167843,0)" xlink:href="#bX"/><use transform="matrix(0.05286051576753077,0,0,0.05286051576753077,41.231202298674,0)" xlink:href="#aa"/><use transform="matrix(0.05286051576753077,0,0,0.05286051576753077,51.803305452180155,0)" xlink:href="#L"/></g><path fill="#333" d="M67-93c0 74 22 123 53 168H70C40 30 18-18 18-93s22-123 52-168h50c-32 44-53 94-53 168" id="bY"/><path fill="#333" d="M67-125c0 54 23 88 75 88 28 0 53-7 68-21v-34h-60v-39h108v91C232-14 192 4 140 4 58 4 20-42 15-125 8-236 126-280 215-234c19 10 29 26 37 47l-47 15c-11-23-29-39-63-39-53 1-75 33-75 86" id="bZ"/><path fill="#333" d="M135-194c52 0 70 43 70 98 0 56-19 99-73 100-30 1-46-15-58-35L72 0H24l1-261h50v104c11-23 29-37 60-37zM114-30c31 0 40-27 40-66 0-37-7-63-39-63s-41 28-41 65c0 36 8 64 40 64" id="ca"/><path fill="#333" d="M102-93c0 74-22 123-52 168H0C30 29 54-18 53-93c0-74-22-123-53-168h50c30 45 52 94 52 168" id="cb"/><g id="y"><use transform="matrix(0.05286051576753077,0,0,0.05286051576753077,0,0)" xlink:href="#bY"/><use transform="matrix(0.05286051576753077,0,0,0.05286051576753077,6.2904013763361615,0)" xlink:href="#bZ"/><use transform="matrix(0.05286051576753077,0,0,0.05286051576753077,21.091345791244777,0)" xlink:href="#ac"/><use transform="matrix(0.05286051576753077,0,0,0.05286051576753077,26.377397367997855,0)" xlink:href="#T"/><use transform="matrix(0.05286051576753077,0,0,0.05286051576753077,32.667798744334014,0)" xlink:href="#U"/><use transform="matrix(0.05286051576753077,0,0,0.05286051576753077,44.24425169742325,0)" xlink:href="#S"/><use transform="matrix(0.05286051576753077,0,0,0.05286051576753077,55.820704650512496,0)" xlink:href="#ca"/><use transform="matrix(0.05286051576753077,0,0,0.05286051576753077,67.39715760360173,0)" xlink:href="#cb"/></g><path fill="#fc9432" d="M199 0l-22-63H83L61 0H9l90-248h61L250 0h-51zm-33-102l-36-108c-10 38-24 72-36 108h72" id="cc"/><path fill="#fc9432" d="M190-63c-7 42-38 67-86 67-59 0-84-38-90-98-12-110 154-137 174-36l-49 2c-2-19-15-32-35-32-30 0-35 28-38 64-6 74 65 87 74 30" id="cd"/><path fill="#fc9432" d="M185-48c-13 30-37 53-82 52C43 2 14-33 14-96s30-98 90-98c62 0 83 45 84 108H66c0 31 8 55 39 56 18 0 30-7 34-22zm-45-69c5-46-57-63-70-21-2 6-4 13-4 21h74" id="ce"/><path fill="#fc9432" d="M137-138c1-29-70-34-71-4 15 46 118 7 119 86 1 83-164 76-172 9l43-7c4 19 20 25 44 25 33 8 57-30 24-41C81-84 22-81 20-136c-2-80 154-74 161-7" id="cf"/><path fill="#fc9432" d="M136-208V0H84v-208H4v-40h212v40h-80" id="cg"/><path fill="#fc9432" d="M110-194c64 0 96 36 96 99 0 64-35 99-97 99-61 0-95-36-95-99 0-62 34-99 96-99zm-1 164c35 0 45-28 45-65 0-40-10-65-43-65-34 0-45 26-45 65 0 36 10 65 43 65" id="ch"/><path fill="#fc9432" d="M147 0L96-86 75-71V0H25v-261h50v150l67-79h53l-66 74L201 0h-54" id="ci"/><path fill="#fc9432" d="M135-194c87-1 58 113 63 194h-50c-7-57 23-157-34-157-59 0-34 97-39 157H25l-1-190h47c2 12-1 28 3 38 12-26 28-41 61-42" id="cj"/><g id="z"><use transform="matrix(0.08964538682564809,0,0,0.08964538682564809,0,0)" xlink:href="#cc"/><use transform="matrix(0.08964538682564809,0,0,0.08964538682564809,23.218155187842854,0)" xlink:href="#cd"/><use transform="matrix(0.08964538682564809,0,0,0.08964538682564809,41.14723255297247,0)" xlink:href="#cd"/><use transform="matrix(0.08964538682564809,0,0,0.08964538682564809,59.07630991810209,0)" xlink:href="#ce"/><use transform="matrix(0.08964538682564809,0,0,0.08964538682564809,77.0053872832317,0)" xlink:href="#cf"/><use transform="matrix(0.08964538682564809,0,0,0.08964538682564809,94.93446464836133,0)" xlink:href="#cf"/><use transform="matrix(0.08964538682564809,0,0,0.08964538682564809,112.86354201349091,0)" xlink:href="#cg"/><use transform="matrix(0.08964538682564809,0,0,0.08964538682564809,130.07545628401536,0)" xlink:href="#ch"/><use transform="matrix(0.08964538682564809,0,0,0.08964538682564809,149.7077959988323,0)" xlink:href="#ci"/><use transform="matrix(0.08964538682564809,0,0,0.08964538682564809,167.6368733639619,0)" xlink:href="#ce"/><use transform="matrix(0.08964538682564809,0,0,0.08964538682564809,185.56595072909153,0)" xlink:href="#cj"/></g><path fill="#333" d="M240-174c0 40-23 61-54 70L253 0h-59l-57-94H76V0H24v-248c93 4 217-23 216 74zM76-134c48-2 112 12 112-38 0-48-66-32-112-35v73" id="ck"/><path fill="#333" d="M190-63c-7 42-38 67-86 67-59 0-84-38-90-98-12-110 154-137 174-36l-49 2c-2-19-15-32-35-32-30 0-35 28-38 64-6 74 65 87 74 30" id="cl"/><g id="A"><use transform="matrix(0.05286051576753077,0,0,0.05286051576753077,0,0)" xlink:href="#ck"/><use transform="matrix(0.05286051576753077,0,0,0.05286051576753077,13.69087358379047,0)" xlink:href="#aa"/><use transform="matrix(0.05286051576753077,0,0,0.05286051576753077,24.262976737296626,0)" xlink:href="#Z"/><use transform="matrix(0.05286051576753077,0,0,0.05286051576753077,34.83507989080278,0)" xlink:href="#K"/><use transform="matrix(0.05286051576753077,0,0,0.05286051576753077,46.41153284389202,0)" xlink:href="#S"/><use transform="matrix(0.05286051576753077,0,0,0.05286051576753077,57.987985796981256,0)" xlink:href="#L"/><use transform="matrix(0.05286051576753077,0,0,0.05286051576753077,65.38845800443556,0)" xlink:href="#cl"/><use transform="matrix(0.05286051576753077,0,0,0.05286051576753077,75.96056115794171,0)" xlink:href="#aa"/></g><g id="B"><use transform="matrix(0.0510520089153858,0,0,0.0510520089153858,0,0)" xlink:href="#bi"/><use transform="matrix(0.0510520089153858,0,0,0.0510520089153858,10.21040178307716,0)" xlink:href="#bj"/><use transform="matrix(0.0510520089153858,0,0,0.0510520089153858,15.31560267461574,0)" xlink:href="#bj"/><use transform="matrix(0.0510520089153858,0,0,0.0510520089153858,20.42080356615432,0)" xlink:href="#bk"/><use transform="matrix(0.0510520089153858,0,0,0.0510520089153858,30.63120534923148,0)" xlink:href="#bl"/><use transform="matrix(0.0510520089153858,0,0,0.0510520089153858,39.820566954000924,0)" xlink:href="#bm"/><use transform="matrix(0.0510520089153858,0,0,0.0510520089153858,44.925767845539504,0)" xlink:href="#bn"/><use transform="matrix(0.0510520089153858,0,0,0.0510520089153858,50.030968737078084,0)" xlink:href="#bn"/><use transform="matrix(0.0510520089153858,0,0,0.0510520089153858,55.13616962861666,0)" xlink:href="#bH"/><use transform="matrix(0.0510520089153858,0,0,0.0510520089153858,65.34657141169382,0)" xlink:href="#bk"/><use transform="matrix(0.0510520089153858,0,0,0.0510520089153858,75.55697319477098,0)" xlink:href="#bq"/><use transform="matrix(0.0510520089153858,0,0,0.0510520089153858,79.59008189908646,0)" xlink:href="#bE"/><use transform="matrix(0.0510520089153858,0,0,0.0510520089153858,84.69528279062504,0)" xlink:href="#bB"/><use transform="matrix(0.0510520089153858,0,0,0.0510520089153858,94.9056845737022,0)" xlink:href="#bq"/><use transform="matrix(0.0510520089153858,0,0,0.0510520089153858,98.93879327801768,0)" xlink:href="#bj"/><use transform="matrix(0.0510520089153858,0,0,0.0510520089153858,104.04399416955627,0)" xlink:href="#bi"/><use transform="matrix(0.0510520089153858,0,0,0.0510520089153858,114.25439595263344,0)" xlink:href="#bC"/><use transform="matrix(0.0510520089153858,0,0,0.0510520089153858,124.4647977357106,0)" xlink:href="#bD"/><use transform="matrix(0.0510520089153858,0,0,0.0510520089153858,134.67519951878774,0)" xlink:href="#bE"/><use transform="matrix(0.0510520089153858,0,0,0.0510520089153858,139.7804004103263,0)" xlink:href="#bo"/><use transform="matrix(0.0510520089153858,0,0,0.0510520089153858,148.96976201509574,0)" xlink:href="#bF"/><use transform="matrix(0.0510520089153858,0,0,0.0510520089153858,159.18016379817288,0)" xlink:href="#bG"/><use transform="matrix(0.0510520089153858,0,0,0.0510520089153858,174.44471446387323,0)" xlink:href="#bn"/><use transform="matrix(0.0510520089153858,0,0,0.0510520089153858,179.5499153554118,0)" xlink:href="#bC"/><use transform="matrix(0.0510520089153858,0,0,0.0510520089153858,189.76031713848897,0)" xlink:href="#bl"/><use transform="matrix(0.0510520089153858,0,0,0.0510520089153858,198.9496787432584,0)" xlink:href="#br"/><use transform="matrix(0.0510520089153858,0,0,0.0510520089153858,209.16008052633558,0)" xlink:href="#bR"/><use transform="matrix(0.0510520089153858,0,0,0.0510520089153858,215.2352695872665,0)" xlink:href="#bK"/><use transform="matrix(0.0510520089153858,0,0,0.0510520089153858,225.44567137034363,0)" xlink:href="#bH"/><use transform="matrix(0.0510520089153858,0,0,0.0510520089153858,235.6560731534208,0)" xlink:href="#bo"/><use transform="matrix(0.0510520089153858,0,0,0.0510520089153858,244.84543475819018,0)" xlink:href="#bo"/><use transform="matrix(0.0510520089153858,0,0,0.0510520089153858,254.03479636295964,0)" xlink:href="#br"/><use transform="matrix(0.0510520089153858,0,0,0.0510520089153858,264.2451981460368,0)" xlink:href="#bl"/><use transform="matrix(0.0510520089153858,0,0,0.0510520089153858,273.4345597508062,0)" xlink:href="#bl"/><use transform="matrix(0.0510520089153858,0,0,0.0510520089153858,282.62392135557565,0)" xlink:href="#bI"/><use transform="matrix(0.0510520089153858,0,0,0.0510520089153858,292.8343231386528,0)" xlink:href="#bj"/><use transform="matrix(0.0510520089153858,0,0,0.0510520089153858,297.93952403019136,0)" xlink:href="#bF"/><use transform="matrix(0.0510520089153858,0,0,0.0510520089153858,308.1499258132685,0)" xlink:href="#bJ"/><use transform="matrix(0.0510520089153858,0,0,0.0510520089153858,317.33928741803794,0)" xlink:href="#br"/><use transform="matrix(0.0510520089153858,0,0,0.0510520089153858,327.5496892011151,0)" xlink:href="#bs"/><use transform="matrix(0.0510520089153858,0,0,0.0510520089153858,337.76009098419223,0)" xlink:href="#bM"/><use transform="matrix(0.0510520089153858,0,0,0.0510520089153858,348.48101285642326,0)" xlink:href="#bN"/><use transform="matrix(0.0510520089153858,0,0,0.0510520089153858,358.6914146395004,0)" xlink:href="#bO"/><use transform="matrix(0.0510520089153858,0,0,0.0510520089153858,364.8176557093467,0)" xlink:href="#cc"/><use transform="matrix(0.0510520089153858,0,0,0.0510520089153858,378.04012601843164,0)" xlink:href="#cd"/><use transform="matrix(0.0510520089153858,0,0,0.0510520089153858,388.2505278015088,0)" xlink:href="#cd"/><use transform="matrix(0.0510520089153858,0,0,0.0510520089153858,398.4609295845859,0)" xlink:href="#ce"/><use transform="matrix(0.0510520089153858,0,0,0.0510520089153858,408.6713313676631,0)" xlink:href="#cf"/><use transform="matrix(0.0510520089153858,0,0,0.0510520089153858,418.8817331507402,0)" xlink:href="#cf"/><use transform="matrix(0.0510520089153858,0,0,0.0510520089153858,429.09213493381736,0)" xlink:href="#cg"/><use transform="matrix(0.0510520089153858,0,0,0.0510520089153858,438.89412064557143,0)" xlink:href="#ch"/><use transform="matrix(0.0510520089153858,0,0,0.0510520089153858,450.0745105980409,0)" xlink:href="#ci"/><use transform="matrix(0.0510520089153858,0,0,0.0510520089153858,460.2849123811181,0)" xlink:href="#ce"/><use transform="matrix(0.0510520089153858,0,0,0.0510520089153858,470.49531416419524,0)" xlink:href="#cj"/><use transform="matrix(0.0510520089153858,0,0,0.0510520089153858,481.67570411666475,0)" xlink:href="#bP"/></g><use transform="matrix(0.05,0,0,0.05,0,0)" xlink:href="#aG" id="C"/><g id="D"><use transform="matrix(0.05,0,0,0.05,0,0)" xlink:href="#aw"/><use transform="matrix(0.05,0,0,0.05,3.95,0)" xlink:href="#au"/><use transform="matrix(0.05,0,0,0.05,13.949999999999998,0)" xlink:href="#ag"/><use transform="matrix(0.05,0,0,0.05,23.95,0)" xlink:href="#af"/><use transform="matrix(0.05,0,0,0.05,27.899999999999995,0)" xlink:href="#ah"/><use transform="matrix(0.05,0,0,0.05,37.9,0)" xlink:href="#aq"/></g><path fill="#333" d="M195 0l-74-108L45 0H8l94-129-87-119h37l69 98 67-98h37l-84 118L233 0h-38" id="cm"/><path fill="#333" d="M68-38c1 34 0 65-14 84H32c9-13 17-26 17-46H33v-38h35" id="cn"/><g id="E"><use transform="matrix(0.05,0,0,0.05,0,0)" xlink:href="#cm"/><use transform="matrix(0.05,0,0,0.05,12,0)" xlink:href="#cm"/><use transform="matrix(0.05,0,0,0.05,24,0)" xlink:href="#cm"/><use transform="matrix(0.05,0,0,0.05,36,0)" xlink:href="#cn"/></g><g id="F"><use transform="matrix(0.05,0,0,0.05,0,0)" xlink:href="#aA"/><use transform="matrix(0.05,0,0,0.05,10,0)" xlink:href="#av"/><use transform="matrix(0.05,0,0,0.05,24.950000000000003,0)" xlink:href="#ax"/><use transform="matrix(0.05,0,0,0.05,34.95,0)" xlink:href="#af"/><use transform="matrix(0.05,0,0,0.05,38.900000000000006,0)" xlink:href="#aw"/><use transform="matrix(0.05,0,0,0.05,42.85000000000001,0)" xlink:href="#aq"/></g><path fill="#333" d="M137-103V0h-34v-103L8-248h37l75 118 75-118h37" id="co"/><g id="G"><use transform="matrix(0.05,0,0,0.05,0,0)" xlink:href="#co"/><use transform="matrix(0.05,0,0,0.05,12,0)" xlink:href="#co"/><use transform="matrix(0.05,0,0,0.05,24,0)" xlink:href="#co"/><use transform="matrix(0.05,0,0,0.05,33.7,0)" xlink:href="#cn"/></g><g id="H"><use transform="matrix(0.05,0,0,0.05,0,0)" xlink:href="#as"/><use transform="matrix(0.05,0,0,0.05,5,0)" xlink:href="#as"/><use transform="matrix(0.05,0,0,0.05,10,0)" xlink:href="#as"/></g><use transform="matrix(0.05,0,0,0.05,0,0)" xlink:href="#aP" id="I"/></defs></g></svg>